<svg width="239" height="129" viewBox="0 0 239 129" fill="none" xmlns="http://www.w3.org/2000/svg">
<path d="M32.659 3.548C32.5297 3.354 32.3357 3.063 32.077 2.675C31.883 2.22233 31.8507 1.93133 31.98 1.802C32.1093 1.67266 32.3033 1.70499 32.562 1.899C32.8853 2.093 33.0793 2.22233 33.144 2.287C34.308 3.12766 35.375 4.29166 36.345 5.779C37.3797 7.26633 38.285 8.91533 39.061 10.726C39.9017 12.472 40.6453 14.315 41.292 16.255C41.9387 18.195 42.456 20.038 42.844 21.784C43.814 26.052 44.6223 30.2553 45.269 34.394C45.9803 38.5327 46.336 42.8007 46.336 47.198C46.336 47.3273 46.336 47.7153 46.336 48.362C46.4007 49.0087 46.3037 49.3967 46.045 49.526C45.851 49.3967 45.6247 49.0733 45.366 48.556C45.172 48.0387 45.0427 47.683 44.978 47.489C44.202 45.0963 43.4907 42.3803 42.844 39.341C42.262 36.237 41.7123 33.424 41.195 30.902C40.807 28.962 40.4513 27.119 40.128 25.373C39.8047 23.5623 39.4167 21.8163 38.964 20.135C38.576 18.4537 38.091 16.7723 37.509 15.091C36.9917 13.345 36.345 11.5343 35.569 9.65899C35.4397 9.40033 35.2133 8.94766 34.89 8.30099C34.6313 7.65433 34.3403 7.00766 34.017 6.361C33.6937 5.71433 33.4027 5.13233 33.144 4.615C32.8853 4.033 32.7237 3.67733 32.659 3.548ZM55.939 75.425C55.2277 75.037 54.7427 74.7783 54.484 74.649C54.2253 74.5843 53.7403 74.3257 53.029 73.873C51.477 72.9677 50.0543 71.8037 48.761 70.381C47.4677 68.8937 46.3037 67.277 45.269 65.531C44.2343 63.785 43.2967 61.942 42.456 60.002C41.68 57.9973 41.001 56.025 40.419 54.085C39.1257 54.9257 37.5737 55.443 35.763 55.637C34.017 55.7663 32.4003 55.831 30.913 55.831C29.0377 55.831 27.1623 55.7663 25.287 55.637C23.4763 55.5077 21.6333 55.443 19.758 55.443C17.9473 58.8057 16.2337 62.0713 14.617 65.24C13.065 68.344 11.8363 71.254 10.931 73.97C10.931 74.0347 10.8987 74.164 10.834 74.358C10.7693 74.6167 10.6723 74.746 10.543 74.746C10.349 74.746 10.252 74.5197 10.252 74.067C10.252 73.6143 10.252 73.3233 10.252 73.194C10.252 70.6073 10.8663 67.7297 12.095 64.561C13.3883 61.3277 14.811 58.159 16.363 55.055L14.908 54.958C14.52 55.8633 13.9703 57.1243 13.259 58.741C12.6123 60.3577 11.9657 62.039 11.319 63.785C10.737 65.531 10.1873 67.2123 9.67 68.829C9.21733 70.4457 8.991 71.739 8.991 72.709C8.991 72.903 8.894 73 8.7 73C8.44133 73 8.24733 72.806 8.118 72.418C7.98867 71.9653 7.85933 71.4803 7.73 70.963C7.66533 70.4457 7.60067 69.9283 7.536 69.411C7.536 68.829 7.536 68.441 7.536 68.247C7.536 65.9837 7.827 63.6233 8.409 61.166C8.991 58.644 9.767 56.3483 10.737 54.279L9.476 54.085C8.894 55.5077 8.34433 56.9303 7.827 58.353C7.30967 59.711 6.857 61.1337 6.469 62.621C6.469 62.7503 6.43667 62.912 6.372 63.106C6.30733 63.3 6.21033 63.3647 6.081 63.3C5.95167 63.0413 5.85467 62.7503 5.79 62.427C5.79 62.039 5.79 61.7157 5.79 61.457C5.79 58.741 6.275 56.122 7.245 53.6C7.56833 52.9533 7.89167 52.63 8.215 52.63C9.573 52.242 10.931 52.0157 12.289 51.951C13.7117 51.8863 15.1667 51.854 16.654 51.854C19.8873 51.854 23.0883 52.1127 26.257 52.63C29.4257 53.0827 32.5943 53.309 35.763 53.309C37.315 53.309 38.7377 53.1797 40.031 52.921L39.837 51.369C39.1257 51.563 38.3497 51.6923 37.509 51.757C36.733 51.8217 35.9893 51.854 35.278 51.854C32.756 51.854 30.137 51.5953 27.421 51.078C24.7697 50.5607 22.2153 49.9463 19.758 49.235C19.6287 49.1057 19.37 49.0087 18.982 48.944C18.594 48.8147 18.4 48.653 18.4 48.459C18.4 48.3297 18.594 48.2327 18.982 48.168C19.37 48.0387 19.6287 47.974 19.758 47.974C20.6633 47.9093 21.5363 47.877 22.377 47.877C23.2823 47.8123 24.1877 47.78 25.093 47.78C26.5803 47.78 28.0677 47.8123 29.555 47.877C31.0423 47.877 32.562 47.877 34.114 47.877C34.89 47.877 35.6983 47.877 36.539 47.877C37.3797 47.877 38.188 47.8447 38.964 47.78L38.77 46.713H37.509C34.405 46.713 31.301 46.422 28.197 45.84C25.1577 45.258 22.086 44.967 18.982 44.967C16.3307 44.967 13.9703 45.2903 11.901 45.937C9.89633 46.5837 8.15033 47.3273 6.663 48.168C5.24033 49.0087 4.07633 49.8493 3.171 50.69C2.26567 51.5307 1.619 52.145 1.231 52.533C1.10167 52.5977 1.037 52.63 1.037 52.63C0.972333 52.63 0.94 52.5653 0.94 52.436C0.94 52.3713 0.972333 52.3067 1.037 52.242C2.201 49.9787 3.62367 48.1033 5.305 46.616C6.98633 45.064 9.05567 43.9 11.513 43.124C13.9703 37.886 16.4923 32.6803 19.079 27.507C21.7303 22.3337 24.511 17.225 27.421 12.181C27.4857 12.0517 27.615 11.8577 27.809 11.599C28.003 11.2757 28.197 11.114 28.391 11.114C28.4557 11.1787 28.488 11.2433 28.488 11.308V11.502C28.488 12.0193 28.4557 12.4073 28.391 12.666C27.1623 17.904 25.3517 22.948 22.959 27.798C20.5663 32.648 18.109 37.4333 15.587 42.154L17.43 42.057C17.624 41.669 18.109 40.8283 18.885 39.535C19.7257 38.2417 20.5987 36.916 21.504 35.558C22.474 34.1353 23.347 32.8743 24.123 31.775C24.899 30.611 25.384 30.029 25.578 30.029L25.675 30.32C25.675 30.6433 25.481 31.3547 25.093 32.454C24.705 33.5533 24.2523 34.7497 23.735 36.043C23.2177 37.3363 22.7003 38.565 22.183 39.729C21.7303 40.8283 21.407 41.6043 21.213 42.057C21.601 42.057 21.989 42.0893 22.377 42.154C22.765 42.154 23.153 42.154 23.541 42.154C24.705 39.826 25.9337 37.401 27.227 34.879C28.585 32.2923 29.749 29.6733 30.719 27.022C31.689 24.3707 32.3357 21.687 32.659 18.971C33.047 16.255 32.853 13.5713 32.077 10.92C32.077 11.2433 31.98 11.89 31.786 12.86C31.6567 13.83 31.4627 14.8647 31.204 15.964C30.9453 16.9987 30.6867 17.9363 30.428 18.777C30.1693 19.553 29.9107 19.941 29.652 19.941C29.458 19.941 29.361 19.8117 29.361 19.553C29.4257 19.2943 29.458 19.1327 29.458 19.068C29.458 17.3867 29.555 15.7377 29.749 14.121C30.0077 12.4397 30.137 10.7583 30.137 9.077C30.137 6.81367 29.7813 4.615 29.07 2.48099C29.07 2.41633 28.973 2.15766 28.779 1.705C28.585 1.18766 28.6497 0.928997 28.973 0.928997C29.1023 0.928997 29.3287 1.09066 29.652 1.414C30.2987 2.06066 30.913 2.93366 31.495 4.033C32.1417 5.13233 32.7237 6.32867 33.241 7.622C33.7583 8.85066 34.2433 10.0793 34.696 11.308C35.1487 12.5367 35.5043 13.5713 35.763 14.412C36.6037 17.1927 37.2827 20.0057 37.8 22.851C38.382 25.6317 38.867 28.4447 39.255 31.29C39.7077 34.0707 40.1603 36.8837 40.613 39.729C41.0657 42.5743 41.583 45.3873 42.165 48.168C42.747 50.884 43.426 53.5353 44.202 56.122C45.0427 58.7087 46.045 61.166 47.209 63.494C48.373 65.822 49.6987 67.9883 51.186 69.993C52.738 71.933 54.5163 73.6467 56.521 75.134C56.8443 75.4573 56.9413 75.6513 56.812 75.716C56.7473 75.8453 56.4563 75.7483 55.939 75.425ZM55.745 67.18C55.8097 67.568 55.7773 67.762 55.648 67.762C55.5187 67.6973 55.357 67.568 55.163 67.374C55.0337 67.18 54.872 66.9537 54.678 66.695C54.5487 66.4363 54.484 66.2747 54.484 66.21C52.932 63.3647 51.7033 60.487 50.798 57.577C49.8927 54.6023 49.1813 51.6277 48.664 48.653C48.1467 45.6137 47.694 42.5743 47.306 39.535C46.9827 36.431 46.5623 33.2947 46.045 30.126C45.5923 26.8927 44.978 23.627 44.202 20.329C43.426 17.031 42.3267 13.6683 40.904 10.241C40.8393 10.1117 40.7423 9.88533 40.613 9.562C40.4837 9.23866 40.4837 9.04466 40.613 8.98C40.7423 8.98 40.904 9.077 41.098 9.271L41.486 9.65899C42.9087 11.3403 44.1697 13.5713 45.269 16.352C46.3683 19.1327 47.3383 22.1073 48.179 25.276C49.0197 28.4447 49.6987 31.581 50.216 34.685C50.798 37.789 51.2507 40.505 51.574 42.833C52.0913 46.519 52.641 50.399 53.223 54.473C53.805 58.547 54.5487 62.3947 55.454 66.016L55.745 67.18ZM26.936 42.542C28.8113 42.736 30.6543 42.9623 32.465 43.221C34.3403 43.4797 36.2157 43.6737 38.091 43.803C37.3797 40.3757 36.7653 36.9807 36.248 33.618C35.7307 30.2553 35.2457 26.828 34.793 23.336C33.9523 26.6987 32.7883 29.9643 31.301 33.133C29.8783 36.3017 28.4233 39.438 26.936 42.542ZM58.849 74.358C57.5557 73.776 56.424 73.2263 55.454 72.709C54.484 72.127 53.6433 71.351 52.932 70.381C51.8327 68.8937 50.9597 67.4063 50.313 65.919C49.731 64.4317 49.246 63.0413 48.858 61.748C48.7287 61.2307 48.5993 60.6487 48.47 60.002C48.4053 59.3553 48.4377 59.032 48.567 59.032C48.8257 59.032 49.149 59.4523 49.537 60.293C49.925 61.1337 50.2807 61.845 50.604 62.427C51.574 64.4317 52.8027 66.4687 54.29 68.538C55.7773 70.5427 57.394 72.1917 59.14 73.485C59.6573 73.9377 59.819 74.2287 59.625 74.358C59.431 74.4873 59.1723 74.4873 58.849 74.358ZM1.522 55.734C1.522 55.734 1.45733 55.734 1.328 55.734H1.231C1.231 55.54 1.26333 55.346 1.328 55.152C1.39267 54.958 1.45733 54.764 1.522 54.57C2.03933 53.4707 2.52433 52.6623 2.977 52.145C3.49433 51.563 4.30267 50.9487 5.402 50.302C6.04867 49.914 6.954 49.526 8.118 49.138C9.282 48.75 10.2197 48.556 10.931 48.556C11.0603 48.556 11.222 48.5883 11.416 48.653C11.6747 48.653 11.804 48.75 11.804 48.944C11.804 49.138 11.4483 49.3967 10.737 49.72C10.0903 50.0433 9.67 50.2697 9.476 50.399C7.01867 51.8863 5.208 53.018 4.044 53.794C2.88 54.57 2.03933 55.2167 1.522 55.734ZM86.2144 48.459C85.309 52.339 84.6947 56.3807 84.3714 60.584C84.048 64.7873 84.3067 68.8613 85.1474 72.806C85.212 72.9353 85.1797 73.0647 85.0504 73.194C84.9857 73.388 84.8887 73.3233 84.7594 73C83.66 70.866 82.884 68.6997 82.4314 66.501C82.0434 64.3023 81.8494 62.136 81.8494 60.002C81.8494 57.8033 82.011 55.6047 82.3344 53.406C82.6577 51.2073 83.078 49.041 83.5954 46.907C83.66 46.6483 83.7894 46.131 83.9834 45.355C84.1774 44.5143 84.3067 43.706 84.3714 42.93C84.5007 42.0893 84.5007 41.4427 84.3714 40.99C84.242 40.5373 83.854 40.5373 83.2074 40.99C81.72 42.0893 80.3297 43.4797 79.0364 45.161C77.8077 46.7777 76.8054 48.362 76.0294 49.914C75.9647 50.0433 75.803 50.4313 75.5444 51.078C75.3504 51.66 75.124 52.3067 74.8654 53.018C74.6714 53.7293 74.4774 54.4407 74.2834 55.152C74.0894 55.7987 73.96 56.219 73.8954 56.413C73.378 58.4177 72.7314 60.3253 71.9554 62.136C71.1794 63.9467 70.5327 65.628 70.0154 67.18C69.8214 67.8267 69.692 68.1177 69.6274 68.053C69.304 68.053 69.1424 67.762 69.1424 67.18C68.819 64.0113 69.0777 60.972 69.9184 58.062C70.8237 55.0873 71.7937 52.048 72.8284 48.944C73.475 46.9393 74.057 44.967 74.5744 43.027C75.1564 41.0223 75.415 38.8237 75.3504 36.431C75.2857 34.7497 75.9 33.1007 77.1934 31.484C78.5514 29.8673 80.556 28.5093 83.2074 27.41C84.7594 26.7633 86.2144 26.4723 87.5724 26.537C88.9304 26.6017 90.1914 26.8927 91.3554 27.41C92.5194 27.9273 93.554 28.671 94.4594 29.641C95.3647 30.611 96.1084 31.678 96.6904 32.842C97.0784 32.1307 97.6604 31.387 98.4364 30.611C99.2124 29.7703 100.118 29.059 101.152 28.477C102.252 27.895 103.448 27.4747 104.741 27.216C106.099 26.8927 107.587 26.8603 109.203 27.119C110.367 27.313 111.37 27.701 112.21 28.283C113.116 28.865 113.892 29.544 114.538 30.32C115.25 31.0313 115.799 31.775 116.187 32.551C116.575 33.327 116.866 33.9737 117.06 34.491C117.772 36.625 118.127 39.0177 118.127 41.669C118.192 44.3203 117.933 46.713 117.351 48.847C116.381 52.339 115.217 55.443 113.859 58.159C112.566 60.875 111.693 63.3 111.24 65.434C111.046 66.1453 110.917 66.501 110.852 66.501C110.594 66.501 110.432 66.3717 110.367 66.113C110.367 65.8543 110.335 65.5957 110.27 65.337C110.141 63.979 110.303 62.2653 110.755 60.196C111.273 58.062 111.855 55.7987 112.501 53.406C113.148 50.9487 113.73 48.459 114.247 45.937C114.765 43.415 114.991 41.087 114.926 38.953C114.862 36.7543 114.377 34.8467 113.471 33.23C112.566 31.6133 111.014 30.514 108.815 29.932C107.069 29.4793 105.517 29.4793 104.159 29.932C102.866 30.32 101.767 30.7727 100.861 31.29C99.5034 32.1953 98.6304 33.1653 98.2424 34.2C97.8544 35.17 97.6604 36.1077 97.6604 37.013C98.7597 35.0083 100.215 33.424 102.025 32.26C103.836 31.0313 105.97 30.805 108.427 31.581C110.044 32.0983 111.176 33.0683 111.822 34.491C112.534 35.9137 112.922 37.498 112.986 39.244C113.051 40.99 112.857 42.736 112.404 44.482C112.016 46.228 111.531 47.683 110.949 48.847C110.885 48.9763 110.723 49.2997 110.464 49.817C110.206 50.2697 109.915 50.4637 109.591 50.399C109.527 50.399 109.494 50.1403 109.494 49.623C109.559 49.1057 109.591 48.7177 109.591 48.459C109.785 47.683 109.915 46.7777 109.979 45.743C110.044 44.7083 110.044 43.6413 109.979 42.542C109.979 41.4427 109.915 40.3757 109.785 39.341C109.656 38.3063 109.462 37.4333 109.203 36.722C108.88 35.8167 108.363 35.2347 107.651 34.976C107.005 34.6527 106.293 34.5557 105.517 34.685C104.741 34.8143 103.965 35.073 103.189 35.461C102.478 35.849 101.864 36.2693 101.346 36.722C99.9237 37.9507 99.0507 39.0823 98.7274 40.117C98.404 41.087 98.1454 42.2187 97.9514 43.512C98.7274 42.2187 99.665 41.0223 100.764 39.923C101.928 38.759 103.06 37.8213 104.159 37.11C104.741 36.8513 105.226 36.7543 105.614 36.819C106.067 36.8837 106.423 37.0777 106.681 37.401C107.005 37.6597 107.231 38.0153 107.36 38.468C107.49 38.856 107.587 39.2117 107.651 39.535C107.845 41.669 107.748 43.5443 107.36 45.161C107.037 46.7777 106.617 48.459 106.099 50.205C105.647 51.8863 105.259 53.794 104.935 55.928C104.677 57.9973 104.741 60.584 105.129 63.688C105.453 65.9513 106.132 67.9883 107.166 69.799C108.201 71.6097 109.494 72.7413 111.046 73.194C111.499 73.3233 111.596 73.4203 111.337 73.485C111.143 73.5497 110.982 73.582 110.852 73.582C109.688 73.4527 108.589 73 107.554 72.224C106.52 71.448 105.582 70.478 104.741 69.314C103.965 68.15 103.319 66.8567 102.801 65.434C102.284 64.0113 101.993 62.5887 101.928 61.166C101.734 58.256 101.896 55.5077 102.413 52.921C102.995 50.2697 103.545 48.0063 104.062 46.131C104.192 45.6137 104.321 44.967 104.45 44.191C104.644 43.3503 104.709 42.639 104.644 42.057C104.644 41.475 104.45 41.1517 104.062 41.087C103.674 40.9577 103.028 41.3133 102.122 42.154C100.829 43.318 99.6974 44.579 98.7274 45.937C97.7574 47.295 97.046 48.8147 96.5934 50.496C95.106 55.8633 92.972 61.0043 90.1914 65.919C90.062 66.1777 89.9004 66.4363 89.7064 66.695C89.5124 66.889 89.383 66.9537 89.3184 66.889C89.189 66.889 89.1567 66.7273 89.2214 66.404C89.286 66.0807 89.3507 65.7573 89.4154 65.434C89.8034 63.1707 90.2884 60.972 90.8704 58.838C91.4524 56.704 92.002 54.5377 92.5194 52.339C93.1014 50.0757 93.5864 47.78 93.9744 45.452C94.427 43.0593 94.6857 40.505 94.7504 37.789C94.621 36.8837 94.427 35.946 94.1684 34.976C93.9744 34.006 93.3277 32.8743 92.2284 31.581C90.935 30.1583 89.4154 29.4147 87.6694 29.35C85.9234 29.2853 84.5007 29.447 83.4014 29.835C82.69 30.029 81.914 30.3847 81.0734 30.902C80.2974 31.4193 79.5537 32.0337 78.8424 32.745C78.1957 33.4563 77.646 34.297 77.1934 35.267C76.8054 36.1723 76.7084 37.1747 76.9024 38.274C77.6137 36.9807 78.422 35.7197 79.3274 34.491C80.2974 33.2623 81.526 32.3247 83.0134 31.678C83.466 31.484 84.048 31.3223 84.7594 31.193C85.4707 30.999 86.2144 30.902 86.9904 30.902C87.7664 30.8373 88.5424 30.9343 89.3184 31.193C90.0944 31.4517 90.7734 31.9367 91.3554 32.648C92.39 33.9413 92.9397 35.1053 93.0044 36.14C93.1337 37.1747 93.166 38.2093 93.1014 39.244C92.972 41.1193 92.681 42.8977 92.2284 44.579C91.7757 46.1957 91.1937 47.7477 90.4824 49.235C90.4177 49.429 90.256 49.7523 89.9974 50.205C89.7387 50.593 89.5447 50.787 89.4154 50.787C89.286 50.7223 89.189 50.4637 89.1244 50.011C89.1244 49.4937 89.189 49.138 89.3184 48.944C89.383 48.2327 89.48 47.198 89.6094 45.84C89.7387 44.4173 89.8034 42.9623 89.8034 41.475C89.868 39.923 89.8034 38.5327 89.6094 37.304C89.4154 36.0107 88.995 35.1053 88.3484 34.588C87.7664 34.1353 86.8934 34.006 85.7294 34.2C84.5654 34.394 83.5307 34.8467 82.6254 35.558C81.72 36.2693 80.944 36.9483 80.2974 37.595C79.7154 38.2417 79.2304 38.9207 78.8424 39.632C78.4544 40.2787 78.0987 41.0223 77.7754 41.863C77.5167 42.639 77.2904 43.5767 77.0964 44.676C77.8724 43.1887 78.7777 41.7983 79.8124 40.505C80.847 39.2117 82.108 38.1123 83.5954 37.207C84.63 36.4957 85.4384 36.2047 86.0204 36.334C86.6024 36.4633 86.9904 36.819 87.1844 37.401C87.443 37.983 87.54 38.7267 87.4754 39.632C87.4754 40.5373 87.443 41.378 87.3784 42.154C87.249 43.1887 87.0874 44.2557 86.8934 45.355C86.6994 46.4543 86.473 47.489 86.2144 48.459ZM113.956 73.194C113.956 73.194 113.795 73.194 113.471 73.194C113.342 73.194 113.18 73.1617 112.986 73.097C112.081 72.903 111.111 72.515 110.076 71.933C109.042 71.2863 108.169 70.1223 107.457 68.441C107.199 67.7943 107.005 66.9537 106.875 65.919C106.746 64.8843 106.681 63.882 106.681 62.912C106.681 61.942 106.746 61.1013 106.875 60.39C107.005 59.6787 107.199 59.3553 107.457 59.42C107.522 59.42 107.587 59.5817 107.651 59.905C107.781 60.1637 107.878 60.487 107.942 60.875C108.007 61.263 108.072 61.651 108.136 62.039C108.201 62.427 108.233 62.718 108.233 62.912C108.363 63.8173 108.524 64.7227 108.718 65.628C108.912 66.4687 109.171 67.2447 109.494 67.956C109.818 68.926 110.4 69.9607 111.24 71.06C112.146 72.0947 112.954 72.6767 113.665 72.806C113.989 72.9353 114.086 73.0647 113.956 73.194ZM87.8634 73C87.9927 73.4527 87.9927 73.679 87.8634 73.679C87.54 73.679 87.2814 73.5173 87.0874 73.194C86.764 72.806 86.4407 72.2563 86.1174 71.545C85.794 70.769 85.6647 69.4757 85.7294 67.665C85.7294 66.9537 85.794 66.113 85.9234 65.143C86.0527 64.1083 86.182 63.1707 86.3114 62.33C86.5054 61.4247 86.6994 60.681 86.8934 60.099C87.0874 59.517 87.3137 59.2583 87.5724 59.323C87.637 59.323 87.6694 59.4847 87.6694 59.808C87.734 60.0667 87.7664 60.39 87.7664 60.778C87.831 61.166 87.8634 61.554 87.8634 61.942C87.8634 62.2653 87.8634 62.4917 87.8634 62.621C87.8634 63.6557 87.831 64.5933 87.7664 65.434C87.7017 66.21 87.6694 67.0507 87.6694 67.956C87.6694 69.1847 87.6694 70.2193 87.6694 71.06C87.6694 71.9007 87.734 72.5473 87.8634 73ZM73.5074 40.796C72.796 43.2533 71.826 45.6783 70.5974 48.071C69.4334 50.4637 68.4634 52.7593 67.6874 54.958C67.6227 55.0873 67.4934 55.346 67.2994 55.734C67.17 56.0573 66.976 56.1867 66.7174 56.122C66.588 56.0573 66.491 55.8633 66.4264 55.54C66.4264 55.152 66.4264 54.861 66.4264 54.667C66.4264 53.6323 66.588 52.2743 66.9114 50.593C67.2994 48.847 67.6874 47.4243 68.0754 46.325C68.2047 45.937 68.431 44.967 68.7544 43.415C69.1424 41.7983 69.4657 40.0523 69.7244 38.177C70.0477 36.3017 70.2417 34.491 70.3064 32.745C70.4357 30.999 70.274 29.738 69.8214 28.962C69.5627 28.5093 69.5627 28.283 69.8214 28.283C70.0154 28.283 70.274 28.4447 70.5974 28.768C71.3734 29.4793 71.9877 30.3523 72.4404 31.387C72.9577 32.4217 73.3134 33.521 73.5074 34.685C73.766 35.7843 73.863 36.8837 73.7984 37.983C73.7984 39.0823 73.7014 40.02 73.5074 40.796ZM67.1054 73.097C65.1007 71.739 63.5487 70.2517 62.4494 68.635C61.4147 67.0183 60.7034 65.337 60.3154 63.591C59.9274 61.845 59.7657 60.0667 59.8304 58.256C59.9597 56.4453 60.2184 54.667 60.6064 52.921C61.1237 50.593 61.7704 48.2973 62.5464 46.034C63.387 43.706 64.163 41.475 64.8744 39.341C65.6504 37.1423 66.2324 35.0083 66.6204 32.939C67.073 30.8697 67.1377 28.8973 66.8144 27.022C66.8144 26.7633 66.8467 26.634 66.9114 26.634C67.0407 26.634 67.2024 26.7957 67.3964 27.119C68.5604 29.1883 69.11 31.3223 69.0454 33.521C68.9807 35.7197 68.625 37.983 67.9784 40.311C67.3317 42.5743 66.5234 44.9023 65.5534 47.295C64.648 49.623 63.9367 51.9833 63.4194 54.376C63.096 55.8633 62.8697 57.4477 62.7404 59.129C62.6757 60.7457 62.805 62.3623 63.1284 63.979C63.4517 65.5957 63.969 67.18 64.6804 68.732C65.4564 70.284 66.491 71.6743 67.7844 72.903C68.043 73.0323 68.1077 73.1617 67.9784 73.291C67.849 73.4203 67.6874 73.4203 67.4934 73.291C67.364 73.2263 67.2347 73.1617 67.1054 73.097ZM70.7914 73.485C70.5974 73.6143 70.3387 73.5173 70.0154 73.194C69.304 72.6767 68.5927 72.127 67.8814 71.545C67.2347 70.963 66.588 70.0253 65.9414 68.732C65.6827 68.2793 65.4887 67.6973 65.3594 66.986C65.23 66.2747 65.1654 65.5957 65.1654 64.949C65.1654 64.2377 65.1977 63.6557 65.2624 63.203C65.3917 62.7503 65.5534 62.524 65.7474 62.524C66.006 62.5887 66.2 62.9443 66.3294 63.591C66.5234 64.2377 66.685 64.658 66.8144 64.852C67.073 65.5633 67.2994 66.2423 67.4934 66.889C67.6874 67.471 67.9137 68.053 68.1724 68.635C68.5604 69.5403 68.9484 70.3163 69.3364 70.963C69.7244 71.6097 70.177 72.2563 70.6944 72.903C70.759 72.9677 70.8237 73.0647 70.8884 73.194C70.953 73.3233 70.9207 73.4203 70.7914 73.485ZM134.55 40.99C134.744 40.1493 134.841 39.1793 134.841 38.08C134.906 36.9807 134.841 35.849 134.647 34.685C134.453 33.521 134.097 32.4217 133.58 31.387C133.127 30.2877 132.513 29.35 131.737 28.574C131.349 28.3153 131.123 28.186 131.058 28.186C130.799 28.186 130.799 28.38 131.058 28.768C131.446 29.6087 131.575 30.9343 131.446 32.745C131.381 34.491 131.187 36.334 130.864 38.274C130.541 40.1493 130.185 41.863 129.797 43.415C129.474 44.9023 129.28 45.8077 129.215 46.131C128.762 47.295 128.342 48.75 127.954 50.496C127.631 52.242 127.469 53.6647 127.469 54.764C127.404 54.8933 127.372 55.152 127.372 55.54C127.372 55.928 127.469 56.1543 127.663 56.219C127.728 56.219 127.857 56.0573 128.051 55.734C128.245 55.4107 128.407 55.1843 128.536 55.055C129.7 52.9857 130.799 50.7223 131.834 48.265C132.933 45.8077 133.839 43.3827 134.55 40.99ZM134.938 55.637C135.197 54.473 135.617 52.9857 136.199 51.175C136.781 49.2997 137.266 47.392 137.654 45.452C138.042 43.4473 138.236 41.5073 138.236 39.632C138.236 37.692 137.848 36.1077 137.072 34.879C136.813 34.6203 136.619 34.491 136.49 34.491C136.361 34.491 136.328 34.6203 136.393 34.879C136.393 37.3363 136.102 39.632 135.52 41.766C135.003 43.8353 134.421 45.8723 133.774 47.877C132.675 51.175 131.672 54.4083 130.767 57.577C129.862 60.681 129.474 63.882 129.603 67.18C129.603 67.374 129.603 67.6003 129.603 67.859C129.668 68.053 129.797 68.15 129.991 68.15C130.12 68.15 130.217 68.0853 130.282 67.956C130.347 67.8267 130.444 67.6327 130.573 67.374C131.22 65.822 131.963 64.0113 132.804 61.942C133.645 59.808 134.356 57.7063 134.938 55.637ZM128.051 73C126.822 71.7067 125.885 70.284 125.238 68.732C124.591 67.1153 124.139 65.4987 123.88 63.882C123.621 62.2007 123.557 60.5193 123.686 58.838C123.815 57.1567 124.074 55.5723 124.462 54.085C125.044 51.757 125.788 49.429 126.693 47.101C127.598 44.773 128.374 42.4773 129.021 40.214C129.668 37.886 130.023 35.6227 130.088 33.424C130.217 31.1607 129.765 28.962 128.73 26.828C128.536 26.5047 128.407 26.343 128.342 26.343C128.277 26.343 128.245 26.4077 128.245 26.537C128.245 26.6017 128.277 26.6663 128.342 26.731C128.536 28.671 128.407 30.6757 127.954 32.745C127.501 34.8143 126.919 36.9483 126.208 39.147C125.497 41.281 124.688 43.512 123.783 45.84C122.942 48.1033 122.231 50.4313 121.649 52.824C121.196 54.57 120.873 56.3483 120.679 58.159C120.55 59.9697 120.679 61.7803 121.067 63.591C121.455 65.337 122.166 67.0183 123.201 68.635C124.236 70.2517 125.723 71.739 127.663 73.097C127.792 73.2263 127.954 73.291 128.148 73.291C128.342 73.3557 128.31 73.2587 128.051 73ZM128.827 69.314C128.633 68.7967 128.407 68.15 128.148 67.374C127.954 66.598 127.792 65.8543 127.663 65.143C127.534 64.8843 127.372 64.3993 127.178 63.688C126.984 62.9767 126.822 62.621 126.693 62.621C126.434 62.621 126.24 62.8473 126.111 63.3C126.046 63.7527 126.014 64.3347 126.014 65.046C126.014 65.6927 126.046 66.404 126.111 67.18C126.24 67.8913 126.402 68.5057 126.596 69.023C126.984 70.3163 127.437 71.2217 127.954 71.739C128.536 72.2563 129.28 72.6767 130.185 73C130.573 73.194 130.864 73.291 131.058 73.291C131.123 73.291 131.123 73.2263 131.058 73.097C131.058 73.0323 131.026 73 130.961 73C130.508 72.4827 130.088 71.933 129.7 71.351C129.377 70.769 129.086 70.09 128.827 69.314ZM136.393 19.165C136.07 19.165 135.552 19.1327 134.841 19.068C134.194 18.9387 133.871 18.6153 133.871 18.098C133.871 17.904 134.162 17.6777 134.744 17.419C135.326 17.0957 135.973 16.6753 136.684 16.158C137.395 15.576 138.042 14.8647 138.624 14.024C139.206 13.1187 139.497 11.987 139.497 10.629C139.497 8.94766 139.174 7.68666 138.527 6.846C138.398 6.65199 138.236 6.458 138.042 6.264C137.848 6.00533 137.783 5.84366 137.848 5.779C137.977 5.779 138.107 5.84366 138.236 5.973C138.43 6.03766 138.559 6.10233 138.624 6.167C139.917 6.87833 140.887 7.816 141.534 8.98C142.245 10.0793 142.601 11.1463 142.601 12.181C142.601 14.2503 142.116 15.9317 141.146 17.225C140.176 18.5183 138.592 19.165 136.393 19.165ZM132.804 15.285C132.028 15.6083 131.64 15.4143 131.64 14.703C131.64 14.1857 131.834 13.7007 132.222 13.248C132.61 12.7307 132.966 12.181 133.289 11.599C133.677 11.017 133.936 10.3703 134.065 9.65899C134.194 8.883 134 7.94533 133.483 6.846C133.354 6.52266 133.127 6.167 132.804 5.779C132.481 5.391 132.384 5.16466 132.513 5.1C132.642 5.03533 132.901 5.1 133.289 5.294C133.742 5.42333 134.033 5.52033 134.162 5.58499C135.261 6.10233 136.07 6.87833 136.587 7.913C137.169 8.94766 137.46 9.853 137.46 10.629C137.46 11.8577 136.943 12.8923 135.908 13.733C134.938 14.509 133.903 15.0263 132.804 15.285ZM129.991 10.047C129.991 9.72366 130.088 9.368 130.282 8.98C130.476 8.52733 130.799 8.30099 131.252 8.30099C131.575 8.30099 131.834 8.52733 132.028 8.98C132.222 9.368 132.319 9.72366 132.319 10.047C132.319 10.3057 132.222 10.6613 132.028 11.114C131.834 11.502 131.575 11.696 131.252 11.696C130.799 11.696 130.476 11.502 130.282 11.114C130.088 10.726 129.991 10.3703 129.991 10.047ZM152.692 40.699C152.175 42.8977 151.431 45.2257 150.461 47.683C149.556 50.0757 148.521 52.3067 147.357 54.376C147.357 54.5053 147.26 54.7317 147.066 55.055C146.937 55.3137 146.743 55.443 146.484 55.443C146.355 55.443 146.258 55.249 146.193 54.861C146.193 54.473 146.225 54.2143 146.29 54.085C146.29 53.0503 146.419 51.6923 146.678 50.011C146.937 48.265 147.26 46.8423 147.648 45.743C147.777 45.355 147.971 44.4173 148.23 42.93C148.553 41.4427 148.812 39.7937 149.006 37.983C149.265 36.1077 149.394 34.3293 149.394 32.648C149.459 30.902 149.265 29.6087 148.812 28.768V28.38C149.071 28.186 149.362 28.2507 149.685 28.574C150.526 29.2853 151.172 30.1583 151.625 31.193C152.142 32.2277 152.498 33.327 152.692 34.491C152.951 35.5903 153.048 36.6897 152.983 37.789C152.983 38.8883 152.886 39.8583 152.692 40.699ZM156.475 40.311C157.186 39.4057 157.865 38.759 158.512 38.371C159.159 37.983 159.805 37.6597 160.452 37.401C160.517 37.401 160.678 37.3687 160.937 37.304C161.196 37.2393 161.39 37.304 161.519 37.498C161.648 37.692 161.616 37.9183 161.422 38.177C161.228 38.4357 161.066 38.6297 160.937 38.759C160.484 39.2117 159.967 39.729 159.385 40.311C158.868 40.8283 158.383 41.3457 157.93 41.863C157.283 42.5743 156.766 43.415 156.378 44.385C155.99 45.2903 155.699 46.228 155.505 47.198C156.604 46.034 157.639 44.9347 158.609 43.9C159.644 42.8653 160.743 41.8953 161.907 40.99C163.394 39.8907 164.688 38.468 165.787 36.722C166.886 34.976 167.662 32.4217 168.115 29.059C168.244 28.7357 168.406 28.5417 168.6 28.477C168.794 28.4123 168.891 28.6387 168.891 29.156C169.085 32.9067 168.697 35.8813 167.727 38.08C166.757 40.2787 165.302 42.1217 163.362 43.609C162.327 44.385 161.293 45.2257 160.258 46.131C159.223 47.0363 158.221 48.0387 157.251 49.138C156.346 50.2373 155.505 51.5307 154.729 53.018C153.953 54.5053 153.274 56.219 152.692 58.159C152.239 59.6463 151.787 61.069 151.334 62.427C150.881 63.7203 150.396 64.9813 149.879 66.21C149.75 66.6627 149.556 66.889 149.297 66.889C149.103 66.8243 149.006 66.501 149.006 65.919C148.683 62.815 148.877 59.7433 149.588 56.704C150.364 53.6 151.269 50.399 152.304 47.101C152.757 45.4843 153.274 43.8677 153.856 42.251C154.503 40.6343 154.794 38.7913 154.729 36.722C154.729 36.0107 155.02 35.267 155.602 34.491C156.184 33.715 156.895 33.0037 157.736 32.357C158.577 31.6457 159.45 31.0637 160.355 30.611C161.26 30.0937 162.036 29.738 162.683 29.544C163.265 29.35 163.556 29.3823 163.556 29.641C163.556 29.8997 163.362 30.223 162.974 30.611C161.616 31.8397 160.226 33.2947 158.803 34.976C157.445 36.6573 156.669 38.4357 156.475 40.311ZM148.036 72.903C147.971 72.9677 147.907 73 147.842 73C147.842 72.9353 147.68 72.806 147.357 72.612C145.417 71.1893 143.897 69.6373 142.798 67.956C141.699 66.2747 140.89 64.561 140.373 62.815C139.92 61.0043 139.726 59.226 139.791 57.48C139.856 55.6693 140.082 53.9233 140.47 52.242C140.987 49.9787 141.602 47.7477 142.313 45.549C143.089 43.2857 143.8 41.1193 144.447 39.05C145.094 36.916 145.579 34.8467 145.902 32.842C146.225 30.7727 146.225 28.8003 145.902 26.925C145.902 26.7957 145.999 26.6987 146.193 26.634C146.258 26.634 146.322 26.6987 146.387 26.828C146.452 26.8927 146.516 26.9573 146.581 27.022C147.81 29.0913 148.424 31.2253 148.424 33.424C148.424 35.558 148.133 37.7567 147.551 40.02C146.969 42.2187 146.225 44.482 145.32 46.81C144.479 49.0733 143.8 51.369 143.283 53.697C142.636 56.6717 142.572 59.8403 143.089 63.203C143.671 66.5657 145.191 69.5727 147.648 72.224C147.777 72.418 147.907 72.5473 148.036 72.612C148.165 72.6767 148.165 72.7737 148.036 72.903ZM150.946 73C150.817 73 150.687 72.9677 150.558 72.903L150.17 72.709C149.265 72.127 148.456 71.5127 147.745 70.866C147.034 70.1547 146.419 69.1523 145.902 67.859C145.708 67.4063 145.546 66.8243 145.417 66.113C145.288 65.337 145.191 64.6257 145.126 63.979C145.126 63.3323 145.158 62.7827 145.223 62.33C145.352 61.8773 145.546 61.6833 145.805 61.748C145.999 61.748 146.193 62.0067 146.387 62.524C146.646 63.0413 146.84 63.5587 146.969 64.076C147.098 64.7873 147.228 65.4663 147.357 66.113C147.551 66.7597 147.777 67.3417 148.036 67.859C148.747 69.4757 149.685 71.0277 150.849 72.515C150.978 72.8383 151.011 73 150.946 73ZM166.757 29.447C166.757 30.805 166.369 32.0013 165.593 33.036C164.817 34.0707 163.879 34.9437 162.78 35.655C162.586 35.7843 162.457 35.7843 162.392 35.655C162.327 35.461 162.295 35.3317 162.295 35.267C162.295 34.879 162.457 34.4263 162.78 33.909C163.103 33.327 163.459 32.745 163.847 32.163C164.3 31.5163 164.72 30.8697 165.108 30.223C165.496 29.5763 165.755 28.9943 165.884 28.477C166.078 28.1537 166.272 28.1537 166.466 28.477C166.66 28.8003 166.757 29.1237 166.757 29.447ZM53.6968 112.88C53.1528 114 52.5128 115.136 51.7768 116.288C51.0408 117.408 50.2728 118.416 49.4728 119.312C49.4408 119.376 49.3608 119.488 49.2328 119.648C49.1048 119.776 48.9928 119.824 48.8968 119.792C48.8328 119.728 48.8168 119.616 48.8488 119.456C48.8808 119.296 48.9128 119.168 48.9448 119.072C49.1048 118.56 49.3448 117.888 49.6648 117.056C49.9848 116.224 50.3208 115.552 50.6728 115.04C50.7688 114.88 50.9608 114.432 51.2488 113.696C51.5688 112.96 51.8728 112.144 52.1608 111.248C52.4488 110.32 52.6568 109.424 52.7848 108.56C52.9448 107.696 52.9288 107.056 52.7368 106.64C52.7368 106.64 52.7368 106.592 52.7368 106.496V106.448C52.8968 106.448 53.0088 106.512 53.0728 106.64C53.4248 107.056 53.6808 107.536 53.8408 108.08C54.0328 108.624 54.1448 109.184 54.1768 109.76C54.2088 110.336 54.1768 110.912 54.0808 111.488C54.0168 112.032 53.8888 112.496 53.6968 112.88ZM55.2808 110C55.6328 110.64 55.7288 111.44 55.5688 112.4C55.4408 113.328 55.1848 114.288 54.8008 115.28C54.4488 116.24 54.0328 117.168 53.5528 118.064C53.1048 118.928 52.7368 119.632 52.4488 120.176C51.9688 121.104 51.3768 122.048 50.6728 123.008C50.0008 123.936 49.3768 124.768 48.8008 125.504C48.6408 125.728 48.4968 125.84 48.3688 125.84C48.3048 125.776 48.2728 125.696 48.2728 125.6C48.3048 125.504 48.3368 125.408 48.3688 125.312C48.8808 123.648 49.5208 122.112 50.2888 120.704C51.0568 119.264 51.8568 117.776 52.6888 116.24C53.2328 115.28 53.7288 114.288 54.1768 113.264C54.6248 112.24 54.9128 111.12 55.0408 109.904C55.0408 109.776 55.0728 109.712 55.1368 109.712C55.1688 109.776 55.2008 109.824 55.2328 109.856C55.2648 109.888 55.2808 109.936 55.2808 110ZM42.5128 112.88C41.9688 114 41.3288 115.136 40.5928 116.288C39.8568 117.408 39.0888 118.416 38.2888 119.312C38.2568 119.376 38.1768 119.488 38.0488 119.648C37.9208 119.776 37.8088 119.824 37.7128 119.792C37.6488 119.728 37.6328 119.616 37.6648 119.456C37.6968 119.296 37.7288 119.168 37.7608 119.072C37.9208 118.56 38.1608 117.888 38.4808 117.056C38.8008 116.224 39.1368 115.552 39.4888 115.04C39.5848 114.88 39.7768 114.432 40.0648 113.696C40.3848 112.96 40.6888 112.144 40.9768 111.248C41.2648 110.32 41.4888 109.424 41.6488 108.56C41.8088 107.696 41.7928 107.056 41.6008 106.64C41.5688 106.608 41.5528 106.56 41.5528 106.496C41.5528 106.464 41.5688 106.448 41.6008 106.448C41.7288 106.448 41.8248 106.512 41.8888 106.64C42.2408 107.056 42.4968 107.536 42.6568 108.08C42.8488 108.624 42.9608 109.184 42.9928 109.76C43.0248 110.336 42.9928 110.912 42.8968 111.488C42.8328 112.032 42.7048 112.496 42.5128 112.88ZM44.0008 108.8C44.1928 108.8 44.3848 109.04 44.5768 109.52C44.8008 109.968 44.9608 110.672 45.0568 111.632C45.2168 112.816 45.1848 114.048 44.9608 115.328C44.7688 116.576 44.5128 117.76 44.1928 118.88C44.1928 118.944 44.1768 119.056 44.1448 119.216C44.1128 119.376 44.0328 119.472 43.9048 119.504C43.8408 119.504 43.7768 119.424 43.7128 119.264C43.6488 119.104 43.6168 118.992 43.6168 118.928C43.5208 118.576 43.4408 118.16 43.3768 117.68C43.3128 117.168 43.2808 116.656 43.2808 116.144C43.0888 116.592 42.8968 117.024 42.7048 117.44C42.5128 117.856 42.3208 118.24 42.1288 118.592V119.072C42.1608 120.48 42.4488 121.92 42.9928 123.392C43.5368 124.832 44.4648 126.064 45.7768 127.088C45.6488 126.768 45.5528 126.544 45.4888 126.416C45.4568 126.256 45.2968 125.968 45.0088 125.552C44.8488 125.36 44.7048 125.104 44.5768 124.784C44.4488 124.432 44.3368 124.112 44.2408 123.824C44.1448 123.504 44.0808 123.232 44.0488 123.008C44.0488 122.784 44.0968 122.672 44.1928 122.672C44.3528 122.608 44.4968 122.688 44.6248 122.912C44.7848 123.136 44.9128 123.344 45.0088 123.536C44.9448 122.864 44.9768 122.192 45.1048 121.52C45.2328 120.816 45.3288 120.176 45.3928 119.6C45.4888 118.768 45.5688 118.032 45.6328 117.392C45.6968 116.72 45.7448 115.92 45.7768 114.992C45.8408 114 45.8408 112.912 45.7768 111.728C45.7128 110.544 45.4568 109.392 45.0088 108.272C44.9448 108.176 44.9608 108.128 45.0568 108.128C45.1208 108.128 45.1688 108.144 45.2008 108.176C45.2328 108.208 45.2808 108.24 45.3448 108.272C45.7608 108.592 46.0968 109.04 46.3528 109.616C46.6408 110.16 46.8488 110.784 46.9768 111.488C47.1368 112.16 47.2328 112.88 47.2648 113.648C47.3288 114.384 47.3608 115.088 47.3608 115.76C47.8408 114.896 48.3368 114.032 48.8488 113.168C49.3608 112.304 49.8088 111.456 50.1928 110.624C50.6088 109.76 50.9288 108.912 51.1528 108.08C51.3768 107.248 51.4728 106.432 51.4408 105.632C51.4408 105.536 51.4568 105.488 51.4888 105.488C51.5848 105.456 51.6328 105.504 51.6328 105.632C52.1128 106.688 52.2568 107.76 52.0648 108.848C51.9048 109.936 51.5688 111.024 51.0568 112.112C50.5768 113.2 50.0008 114.288 49.3288 115.376C48.6568 116.432 48.0648 117.488 47.5528 118.544C46.9128 119.888 46.4488 121.36 46.1608 122.96C45.9048 124.56 46.0008 126.24 46.4488 128V128.048C46.4168 128.08 46.4008 128.096 46.4008 128.096C46.3368 128.096 46.2888 128.08 46.2568 128.048C46.2248 128.048 46.1928 128.032 46.1608 128C46.0648 127.872 45.9528 127.744 45.8248 127.616C45.7288 127.488 45.5688 127.36 45.3448 127.232C43.8728 126.464 42.8008 125.536 42.1288 124.448C41.4888 123.328 41.0728 122.16 40.8808 120.944C40.3688 121.744 39.8088 122.544 39.2008 123.344C38.6248 124.144 38.0968 124.864 37.6168 125.504C37.4568 125.728 37.3128 125.84 37.1848 125.84C37.1208 125.776 37.0888 125.696 37.0888 125.6C37.1208 125.504 37.1528 125.408 37.1848 125.312C37.6968 123.648 38.3528 122.08 39.1528 120.608C39.9528 119.104 40.7848 117.6 41.6488 116.096C41.9048 115.648 42.1448 115.216 42.3688 114.8C42.6248 114.352 42.8488 113.904 43.0408 113.456C43.2648 113.008 43.4408 112.512 43.5688 111.968C43.7288 111.424 43.8568 110.8 43.9528 110.096C43.9848 109.872 43.9688 109.6 43.9048 109.28C43.8728 108.96 43.9048 108.8 44.0008 108.8ZM33.8728 111.488C33.8728 112.672 33.8088 113.92 33.6808 115.232C33.5528 116.544 33.3288 117.76 33.0088 118.88C33.0088 118.944 32.9928 119.056 32.9608 119.216C32.9288 119.376 32.8488 119.472 32.7208 119.504C32.6568 119.504 32.5928 119.424 32.5288 119.264C32.4648 119.104 32.4328 118.992 32.4328 118.928C32.3688 118.672 32.3048 118.368 32.2408 118.016C32.2088 117.632 32.1768 117.248 32.1448 116.864C32.1128 116.48 32.0808 116.096 32.0488 115.712C32.0488 115.328 32.0648 114.992 32.0968 114.704C32.1288 114.512 32.1128 114.032 32.0488 113.264C31.9848 112.496 31.8888 111.664 31.7608 110.768C31.6328 109.872 31.4568 109.008 31.2328 108.176C31.0088 107.344 30.7368 106.784 30.4168 106.496C30.3528 106.432 30.3048 106.368 30.2728 106.304C30.2728 106.208 30.2888 106.16 30.3208 106.16C30.3848 106.16 30.4488 106.192 30.5128 106.256C30.6088 106.288 30.6888 106.304 30.7528 106.304C31.2008 106.528 31.6168 106.848 32.0008 107.264C32.3848 107.68 32.7048 108.128 32.9608 108.608C33.2488 109.088 33.4728 109.584 33.6328 110.096C33.7928 110.608 33.8728 111.072 33.8728 111.488ZM40.4488 105.728C40.9288 106.784 41.0728 107.856 40.8808 108.944C40.7208 110 40.3848 111.072 39.8728 112.16C39.3928 113.216 38.8168 114.288 38.1448 115.376C37.4728 116.432 36.8808 117.488 36.3688 118.544C35.7288 119.888 35.2648 121.36 34.9768 122.96C34.7208 124.56 34.8168 126.24 35.2648 128V128.048C35.2328 128.08 35.2168 128.096 35.2168 128.096C35.1528 128.096 35.1048 128.08 35.0728 128.048C35.0408 128.048 35.0247 128.032 35.0247 128C34.9288 127.872 34.8168 127.744 34.6888 127.616C34.5608 127.488 34.3848 127.36 34.1608 127.232C33.2328 126.752 32.4648 126.192 31.8568 125.552C31.2488 124.912 30.7688 124.224 30.4168 123.488C30.0968 122.752 29.8568 121.984 29.6968 121.184C29.5688 120.384 29.5048 119.584 29.5048 118.784C29.4728 117.632 29.4888 116.48 29.5527 115.328C29.6488 114.144 29.6968 113.008 29.6968 111.92C29.7288 110.832 29.6808 109.792 29.5527 108.8C29.4248 107.776 29.1528 106.848 28.7368 106.016C28.7368 105.952 28.7368 105.92 28.7368 105.92C28.8008 105.856 28.8648 105.856 28.9288 105.92C28.9928 105.952 29.0408 105.968 29.0728 105.968C29.9048 106.736 30.4648 107.632 30.7528 108.656C31.0408 109.68 31.2008 110.768 31.2328 111.92C31.2648 113.072 31.2168 114.256 31.0888 115.472C30.9608 116.688 30.9128 117.888 30.9448 119.072C30.9768 119.776 31.0568 120.496 31.1848 121.232C31.3128 121.968 31.5208 122.688 31.8088 123.392C32.0968 124.064 32.4648 124.72 32.9128 125.36C33.3928 126 33.9528 126.576 34.5928 127.088C34.4648 126.768 34.3688 126.544 34.3047 126.416C34.2408 126.256 34.0808 125.968 33.8248 125.552C33.6648 125.36 33.5208 125.104 33.3928 124.784C33.2648 124.432 33.1528 124.112 33.0568 123.824C32.9608 123.504 32.8968 123.232 32.8648 123.008C32.8648 122.784 32.9128 122.672 33.0088 122.672C33.1688 122.608 33.3128 122.688 33.4408 122.912C33.6008 123.136 33.7288 123.344 33.8248 123.536C33.7928 122.864 33.8248 122.192 33.9208 121.52C34.0488 120.816 34.1448 120.176 34.2088 119.6C34.3048 118.768 34.3848 118.032 34.4488 117.392C34.5128 116.72 34.5608 115.92 34.5928 114.992C34.6568 114 34.6568 112.912 34.5928 111.728C34.5608 110.544 34.3048 109.392 33.8248 108.272C33.8248 108.176 33.8408 108.128 33.8728 108.128C33.9368 108.128 33.9848 108.144 34.0168 108.176C34.0488 108.208 34.0968 108.24 34.1608 108.272C34.5768 108.592 34.9128 109.04 35.1688 109.616C35.4568 110.16 35.6648 110.784 35.7928 111.488C35.9528 112.16 36.0488 112.88 36.0808 113.648C36.1448 114.384 36.1768 115.088 36.1768 115.76C36.6568 114.896 37.1528 114.032 37.6648 113.168C38.1768 112.304 38.6248 111.456 39.0088 110.624C39.4248 109.76 39.7448 108.912 39.9688 108.08C40.1927 107.248 40.2888 106.432 40.2568 105.632C40.2568 105.536 40.2888 105.488 40.3528 105.488C40.3848 105.456 40.4008 105.472 40.4008 105.536C40.4328 105.6 40.4488 105.664 40.4488 105.728ZM36.5608 128C36.5608 128.128 36.5288 128.192 36.4648 128.192C36.4328 128.192 36.3688 128.16 36.2728 128.096C36.2088 128.064 36.1448 128.032 36.0808 128C35.8248 127.808 35.6328 127.536 35.5048 127.184C35.4088 126.832 35.3928 126.304 35.4568 125.6C35.4568 125.312 35.4888 124.992 35.5528 124.64C35.6168 124.288 35.6968 123.968 35.7928 123.68C35.8888 123.36 35.9848 123.12 36.0808 122.96C36.1768 122.768 36.2728 122.688 36.3688 122.72C36.5288 122.784 36.5928 122.992 36.5608 123.344C36.5608 123.664 36.5608 123.904 36.5608 124.064C36.5288 124.896 36.5128 125.648 36.5128 126.32C36.5128 126.992 36.5288 127.552 36.5608 128ZM47.7448 128C47.7448 128.128 47.7128 128.192 47.6488 128.192C47.6168 128.192 47.5528 128.16 47.4568 128.096C47.3928 128.064 47.3288 128.032 47.2648 128C47.0088 127.808 46.8168 127.536 46.6888 127.184C46.5928 126.832 46.5768 126.304 46.6408 125.6C46.6408 125.312 46.6728 124.992 46.7368 124.64C46.8008 124.288 46.8808 123.968 46.9768 123.68C47.0728 123.36 47.1688 123.12 47.2648 122.96C47.3608 122.768 47.4568 122.688 47.5528 122.72C47.7128 122.784 47.7768 122.992 47.7448 123.344C47.7448 123.664 47.7448 123.904 47.7448 124.064C47.7128 124.896 47.6968 125.648 47.6968 126.32C47.6968 126.992 47.7128 127.552 47.7448 128ZM70.0318 108.416C70.2878 108.736 70.4798 109.136 70.6078 109.616C70.7678 110.096 70.8318 110.624 70.7998 111.2C70.7678 111.744 70.6398 112.32 70.4158 112.928C70.1918 113.536 69.8398 114.128 69.3598 114.704C68.4318 115.792 67.4078 116.64 66.2878 117.248C65.1998 117.824 64.2078 118.112 63.3118 118.112C62.7678 118.112 62.7678 118.016 63.3118 117.824C63.5998 117.728 63.9358 117.584 64.3198 117.392C64.7358 117.168 65.1678 116.912 65.6158 116.624C66.0638 116.304 66.5118 115.936 66.9598 115.52C67.4398 115.104 67.8718 114.624 68.2558 114.08C68.8958 113.184 69.2638 112.32 69.3598 111.488C69.4878 110.624 69.3278 109.968 68.8798 109.52C68.4958 109.136 68.0478 108.928 67.5358 108.896C67.0238 108.832 66.2558 109.104 65.2318 109.712C64.3038 110.256 63.4718 110.928 62.7358 111.728C61.9998 112.528 61.3118 113.376 60.6718 114.272C60.3198 114.72 60.0798 114.944 59.9518 114.944C59.8558 114.944 59.9038 114.656 60.0958 114.08C60.4798 112.96 61.0078 111.92 61.6797 110.96C62.3838 110 63.2158 109.184 64.1758 108.512C64.8798 108.032 65.5198 107.696 66.0958 107.504C66.7038 107.312 67.2478 107.232 67.7278 107.264C68.2398 107.296 68.6878 107.424 69.0718 107.648C69.4558 107.84 69.7758 108.096 70.0318 108.416ZM72.6238 111.776C72.4958 112.544 72.2878 113.2 71.9998 113.744C71.7438 114.256 71.4398 114.704 71.0878 115.088C70.7678 115.44 70.4318 115.728 70.0798 115.952C69.7598 116.176 69.4718 116.384 69.2158 116.576C69.0878 116.672 68.9918 116.688 68.9278 116.624C68.8638 116.56 68.9118 116.448 69.0718 116.288C69.6478 115.808 70.2238 115.168 70.7998 114.368C71.4078 113.536 71.7278 112.624 71.7598 111.632C71.7598 109.936 71.3438 108.64 70.5118 107.744C69.6798 106.848 68.6398 106.464 67.3918 106.592C66.1438 106.688 64.8478 107.168 63.5038 108.032C62.6398 108.576 61.8718 109.216 61.1998 109.952C60.5598 110.656 59.9998 111.424 59.5198 112.256C59.0398 113.056 58.6398 113.888 58.3198 114.752C58.0318 115.616 57.8238 116.48 57.6958 117.344C57.5678 118.176 57.4398 119.072 57.3118 120.032C57.2158 120.992 57.2158 121.936 57.3118 122.864C57.4398 123.792 57.7438 124.688 58.2238 125.552C58.7038 126.384 59.4558 127.104 60.4798 127.712C60.6398 127.808 60.7998 127.872 60.9598 127.904C61.1518 127.936 61.2478 127.968 61.2478 128C61.2478 128.064 61.1678 128.096 61.0078 128.096C60.8478 128.128 60.6718 128.112 60.4798 128.048C59.6798 127.888 58.9918 127.568 58.4158 127.088C57.8718 126.576 57.4238 126 57.0718 125.36C56.7198 124.72 56.4478 124.048 56.2558 123.344C56.0638 122.64 55.9518 122 55.9198 121.424C55.7278 118.896 56.0798 116.4 56.9758 113.936C57.1678 113.424 57.4078 112.848 57.6958 112.208C58.0158 111.568 58.3998 110.928 58.8478 110.288C59.2958 109.616 59.8238 108.976 60.4318 108.368C61.0398 107.728 61.7278 107.168 62.4958 106.688C63.2318 106.24 63.9998 105.904 64.7998 105.68C65.5998 105.456 66.3998 105.36 67.1998 105.392C67.9998 105.392 68.7518 105.536 69.4557 105.824C70.1598 106.08 70.7838 106.48 71.3278 107.024C71.8078 107.536 72.1758 108.192 72.4318 108.992C72.7198 109.792 72.7838 110.72 72.6238 111.776ZM68.2558 110.048C68.6398 110.496 68.6878 111.2 68.3998 112.16C68.1118 113.088 67.4398 114.032 66.3838 114.992C65.8078 115.536 65.2478 115.984 64.7038 116.336C64.1598 116.656 63.4718 116.944 62.6398 117.2C62.2878 118.416 62.0638 119.616 61.9678 120.8C61.8718 121.984 61.9038 122.944 62.0638 123.68C62.0958 123.968 62.1918 124.256 62.3518 124.544C62.5438 124.8 62.7998 125.008 63.1198 125.168C63.4718 125.296 63.9198 125.344 64.4638 125.312C65.0078 125.28 65.6798 125.104 66.4798 124.784C66.7038 124.688 66.8318 124.672 66.8638 124.736C66.9278 124.768 66.8318 124.864 66.5758 125.024C65.9998 125.472 65.3918 125.792 64.7518 125.984C64.1118 126.144 63.5038 126.192 62.9278 126.128C62.3838 126.064 61.9038 125.872 61.4878 125.552C61.1038 125.232 60.8478 124.8 60.7198 124.256C60.4638 123.136 60.3518 121.968 60.3838 120.752C60.4158 119.536 60.5918 118.336 60.9118 117.152C61.2638 115.968 61.7438 114.864 62.3518 113.84C62.9918 112.784 63.7758 111.888 64.7038 111.152C66.4318 109.776 67.6158 109.408 68.2558 110.048ZM67.7758 125.36C67.5518 125.68 67.2638 126 66.9118 126.32C66.5918 126.608 66.2078 126.88 65.7598 127.136C65.3438 127.36 64.8958 127.552 64.4158 127.712C63.9678 127.872 63.5038 127.952 63.0238 127.952C62.1918 127.952 61.4078 127.776 60.6718 127.424C59.9678 127.04 59.4238 126.288 59.0398 125.168C58.9758 125.04 58.9438 124.928 58.9438 124.832C58.9438 124.704 58.9758 124.64 59.0398 124.64C59.1678 124.576 59.2958 124.624 59.4238 124.784C59.5518 124.912 59.6798 125.056 59.8078 125.216C60.1598 125.632 60.6078 126 61.1518 126.32C61.7278 126.64 62.2718 126.8 62.7838 126.8C63.7438 126.8 64.5758 126.656 65.2798 126.368C65.9838 126.08 66.6558 125.696 67.2958 125.216C67.4558 125.12 67.6318 125.024 67.8238 124.928C68.0478 124.832 68.0318 124.976 67.7758 125.36ZM67.1038 111.344C66.9758 111.088 66.5118 111.296 65.7118 111.968C64.9758 112.544 64.3838 113.216 63.9358 113.984C63.5198 114.72 63.1518 115.536 62.8318 116.432C63.4398 116.144 63.9998 115.824 64.5118 115.472C65.0238 115.088 65.5038 114.72 65.9518 114.368C66.4318 113.952 66.7838 113.408 67.0078 112.736C67.2318 112.064 67.2638 111.6 67.1038 111.344ZM83.5558 118.976C83.1398 119.744 82.6758 120.576 82.1638 121.472C81.6518 122.336 81.1558 122.96 80.6758 123.344C80.1958 123.728 79.8598 123.856 79.6678 123.728C79.4758 123.6 79.2518 123.312 78.9958 122.864C78.7398 122.48 78.6118 122.288 78.6118 122.288C78.5158 122.32 78.4678 122.432 78.4678 122.624C78.4678 122.816 78.4998 122.992 78.5638 123.152C78.7558 123.792 78.9798 124.24 79.2358 124.496C79.5238 124.72 79.9238 124.752 80.4358 124.592C81.0118 124.432 81.5718 124.08 82.1158 123.536C82.6918 122.992 83.1878 122.448 83.6038 121.904C84.5638 120.592 85.3158 119.2 85.8598 117.728C86.4358 116.256 86.7558 114.752 86.8198 113.216C86.8838 111.808 86.7078 110.896 86.2918 110.48C85.8758 110.064 85.3478 109.936 84.7078 110.096C84.0998 110.224 83.4278 110.56 82.6918 111.104C81.9878 111.616 81.3478 112.112 80.7718 112.592C80.9638 112.112 81.2198 111.648 81.5398 111.2C81.8918 110.752 82.2758 110.368 82.6918 110.048C83.1398 109.696 83.6198 109.44 84.1318 109.28C84.6758 109.088 85.2198 109.024 85.7638 109.088C86.0838 109.12 86.3718 109.28 86.6278 109.568C86.8838 109.856 87.0918 110.224 87.2518 110.672C87.4118 111.088 87.5078 111.584 87.5398 112.16C87.6038 112.736 87.6038 113.328 87.5398 113.936C87.3798 115.152 87.1398 116.368 86.8198 117.584C86.5318 118.8 86.1478 119.92 85.6678 120.944C85.6038 121.104 85.4918 121.328 85.3318 121.616C85.2038 121.904 85.1718 122.08 85.2358 122.144C85.2998 122.208 85.4438 122.112 85.6678 121.856C85.9238 121.568 86.1158 121.36 86.2438 121.232C86.8198 120.464 87.3318 119.6 87.7798 118.64C88.2278 117.648 88.5638 116.64 88.7878 115.616C89.0438 114.592 89.1878 113.568 89.2198 112.544C89.2518 111.488 89.1558 110.496 88.9318 109.568C88.7398 108.768 88.3398 108.224 87.7318 107.936C87.1558 107.648 86.5158 107.552 85.8118 107.648C85.1078 107.744 84.4038 107.968 83.6998 108.32C82.9958 108.672 82.4198 109.056 81.9718 109.472C82.1638 108.992 82.4198 108.576 82.7398 108.224C83.0918 107.84 83.4758 107.52 83.8918 107.264C84.3398 106.976 84.8038 106.784 85.2838 106.688C85.7958 106.56 86.3078 106.528 86.8198 106.592C87.7158 106.688 88.3878 107.04 88.8358 107.648C89.3158 108.256 89.6358 108.96 89.7958 109.76C89.9878 110.528 90.0678 111.344 90.0358 112.208C90.0358 113.04 90.0038 113.744 89.9398 114.32C89.7798 115.664 89.4758 116.992 89.0278 118.304C88.5798 119.616 88.0198 120.832 87.3478 121.952C86.8038 122.848 86.0838 123.728 85.1878 124.592C84.3238 125.456 83.3798 126.144 82.3558 126.656C81.3318 127.168 80.2758 127.44 79.1878 127.472C78.0998 127.472 77.0758 127.072 76.1158 126.272C75.4758 125.728 75.0118 125.008 74.7238 124.112C74.4678 123.184 74.2918 122.304 74.1958 121.472C74.0358 120.032 74.0518 118.592 74.2438 117.152C74.4678 115.68 74.7878 114.32 75.2038 113.072C75.8438 111.12 76.5638 109.152 77.3638 107.168C78.1958 105.184 78.8998 103.232 79.4758 101.312C80.0838 99.392 80.4678 97.536 80.6278 95.744C80.7878 93.952 80.5318 92.256 79.8598 90.656C79.8278 90.592 79.7958 90.528 79.7638 90.464C79.7638 90.4 79.7478 90.368 79.7158 90.368C79.6198 90.4 79.5718 90.432 79.5718 90.464C79.6038 90.496 79.6198 90.528 79.6198 90.56C79.8118 92.096 79.7478 93.696 79.4278 95.36C79.1078 97.024 78.6438 98.752 78.0358 100.544C77.4598 102.336 76.8038 104.192 76.0678 106.112C75.3318 108 74.6278 109.952 73.9558 111.968C73.5078 113.408 73.1398 114.944 72.8518 116.576C72.5958 118.208 72.5958 119.872 72.8518 121.568C73.2038 123.872 74.1478 125.584 75.6838 126.704C77.2198 127.824 79.1398 128.256 81.4438 128C83.1078 127.808 84.5798 127.136 85.8598 125.984C87.1398 124.832 88.2118 123.44 89.0758 121.808C89.7158 120.56 90.2598 119.248 90.7078 117.872C91.1878 116.464 91.4758 115.04 91.5718 113.6C91.6358 112.704 91.6198 111.776 91.5238 110.816C91.4598 109.856 91.2518 108.976 90.8998 108.176C90.5798 107.344 90.0838 106.672 89.4118 106.16C88.7718 105.616 87.9078 105.312 86.8198 105.248C86.1798 105.216 85.4598 105.376 84.6598 105.728C83.8918 106.08 83.2838 106.496 82.8358 106.976C83.1238 106.016 83.3798 105.04 83.6038 104.048C83.8598 103.024 84.0518 102.048 84.1797 101.12C84.3078 100.192 84.3558 99.328 84.3238 98.528C84.3238 97.696 84.2118 96.992 83.9878 96.416C83.9238 96.16 83.8598 96.032 83.7958 96.032C83.7638 96.032 83.7478 96.16 83.7478 96.416C83.6838 98.464 83.3478 100.416 82.7398 102.272C82.1318 104.096 81.5238 105.84 80.9158 107.504C80.4358 108.848 79.9238 110.192 79.3798 111.536C78.8678 112.848 78.4198 114.16 78.0358 115.472C77.6838 116.784 77.4278 118.08 77.2678 119.36C77.1078 120.608 77.1398 121.824 77.3638 123.008C77.3958 123.136 77.4438 123.296 77.5078 123.488C77.6038 123.648 77.6838 123.728 77.7478 123.728C77.8118 123.728 77.8278 123.648 77.7958 123.488C77.7958 123.328 77.8118 123.168 77.8438 123.008C78.0038 121.888 78.3078 120.544 78.7558 118.976C79.2038 117.376 79.7318 115.776 80.3398 114.176C80.6918 113.856 81.1078 113.488 81.5878 113.072C82.0998 112.624 82.5958 112.224 83.0758 111.872C83.5878 111.52 84.0518 111.264 84.4678 111.104C84.8838 110.912 85.1878 110.896 85.3798 111.056C85.6358 111.312 85.7318 111.792 85.6678 112.496C85.6038 113.168 85.4438 113.92 85.1878 114.752C84.9638 115.584 84.6918 116.4 84.3718 117.2C84.0518 117.968 83.7798 118.56 83.5558 118.976ZM82.1638 101.744C82.3558 101.072 82.4998 100.272 82.5958 99.344C82.7238 98.384 82.7718 97.44 82.7398 96.512C82.7078 95.552 82.5798 94.656 82.3558 93.824C82.1638 92.96 81.8598 92.272 81.4438 91.76C81.3798 91.696 81.3158 91.632 81.2518 91.568C81.1878 91.472 81.1238 91.424 81.0598 91.424C80.9638 91.424 80.9798 91.584 81.1078 91.904C81.3958 92.544 81.4918 93.504 81.3958 94.784C81.2998 96.032 81.1078 97.376 80.8198 98.816C80.5318 100.256 80.1958 101.664 79.8118 103.04C79.4278 104.416 79.0758 105.504 78.7558 106.304C78.5638 106.752 78.3558 107.296 78.1318 107.936C77.9398 108.576 77.7478 109.232 77.5558 109.904C77.3638 110.544 77.1718 111.184 76.9798 111.824C76.8198 112.432 76.6918 112.96 76.5958 113.408C76.5958 113.568 76.5638 113.792 76.4998 114.08C76.4678 114.368 76.4678 114.512 76.4998 114.512C76.6598 114.576 76.7878 114.464 76.8838 114.176C77.0118 113.888 77.1238 113.712 77.2198 113.648C78.1158 111.824 78.9958 109.904 79.8598 107.888C80.7558 105.84 81.5238 103.792 82.1638 101.744ZM77.0278 124.592C77.3158 125.072 77.6838 125.472 78.1318 125.792C78.5798 126.08 79.0278 126.272 79.4758 126.368C79.6358 126.4 79.8118 126.448 80.0038 126.512C80.1958 126.544 80.2918 126.624 80.2918 126.752C80.2598 126.848 80.1158 126.928 79.8598 126.992C79.7318 127.024 79.5878 127.04 79.4278 127.04C78.8838 127.008 78.3398 126.912 77.7958 126.752C77.2838 126.592 76.7398 126.128 76.1638 125.36C75.7798 124.848 75.4918 124.272 75.2998 123.632C75.1398 122.992 75.0438 122.384 75.0117 121.808C74.9798 121.232 74.9958 120.752 75.0598 120.368C75.1558 119.984 75.2838 119.808 75.4438 119.84C75.4758 119.84 75.5238 119.936 75.5878 120.128C75.6518 120.288 75.6998 120.496 75.7318 120.752C75.7958 120.976 75.8438 121.2 75.8758 121.424C75.9398 121.616 75.9878 121.76 76.0198 121.856C76.1478 122.4 76.2598 122.848 76.3558 123.2C76.4518 123.552 76.6758 124.016 77.0278 124.592ZM121.678 124.304C121.614 124.368 121.534 124.336 121.438 124.208C121.342 124.08 121.262 123.968 121.198 123.872C120.078 121.856 119.23 119.696 118.654 117.392C118.11 115.056 117.566 112.72 117.022 110.384C116.67 108.88 116.302 107.36 115.918 105.824C115.534 104.288 114.926 102.752 114.094 101.216C113.998 101.024 113.998 100.896 114.094 100.832C114.158 100.8 114.206 100.816 114.238 100.88C114.27 100.912 114.334 100.96 114.43 101.024C114.942 101.376 115.422 101.92 115.87 102.656C116.318 103.392 116.734 104.208 117.118 105.104L117.646 104.48C118.19 103.84 118.702 103.184 119.182 102.512C119.662 101.84 120.158 101.168 120.67 100.496C120.734 100.432 120.814 100.336 120.91 100.208C121.006 100.08 121.07 100.048 121.102 100.112C121.134 100.24 121.15 100.384 121.15 100.544C121.15 100.608 121.134 100.656 121.102 100.688C120.846 101.232 120.526 101.856 120.142 102.56C119.79 103.264 119.134 104.176 118.174 105.296L117.454 106.112C117.518 106.208 117.566 106.32 117.598 106.448C117.662 106.544 117.726 106.672 117.79 106.832C118.526 105.872 119.214 104.944 119.854 104.048C120.526 103.152 121.134 102.288 121.678 101.456C121.742 101.392 121.79 101.344 121.822 101.312C121.854 101.248 121.886 101.184 121.918 101.12C121.95 101.056 121.982 101.008 122.014 100.976C122.206 101.04 122.254 101.152 122.158 101.312C121.678 102.496 121.086 103.648 120.382 104.768C119.71 105.856 118.974 106.96 118.174 108.08C118.526 109.328 118.846 110.56 119.134 111.776C119.454 112.992 119.71 113.968 119.902 114.704L119.95 114.992C120.206 114.576 120.446 114.176 120.67 113.792C120.926 113.408 121.15 113.008 121.342 112.592C121.406 112.528 121.454 112.48 121.486 112.448C121.518 112.384 121.566 112.352 121.63 112.352C121.662 112.288 121.662 112.336 121.63 112.496C121.63 112.624 121.63 112.704 121.63 112.736C121.47 113.28 121.262 113.824 121.006 114.368C120.782 114.912 120.526 115.472 120.238 116.048C120.302 116.176 120.35 116.32 120.382 116.48C120.414 116.608 120.446 116.736 120.478 116.864C120.734 116.416 120.974 116 121.198 115.616C121.454 115.2 121.63 114.864 121.726 114.608C121.758 114.544 121.79 114.48 121.822 114.416C121.854 114.352 121.886 114.288 121.918 114.224C121.95 114.16 121.982 114.112 122.014 114.08C122.11 114.08 122.158 114.144 122.158 114.272C122.158 114.368 122.158 114.48 122.158 114.608C122.158 115.12 122.046 115.728 121.822 116.432C121.598 117.136 121.262 117.856 120.814 118.592C120.974 119.52 121.134 120.416 121.294 121.28C121.454 122.144 121.582 122.944 121.678 123.68C121.71 123.808 121.726 123.952 121.726 124.112C121.726 124.24 121.71 124.304 121.678 124.304ZM116.878 117.728C116.846 117.728 116.766 117.616 116.638 117.392C116.542 117.168 116.494 117.024 116.494 116.96C116.302 116.64 116.094 116.224 115.87 115.712C115.678 115.168 115.486 114.624 115.294 114.08C115.102 113.504 114.926 112.944 114.766 112.4C114.638 111.856 114.526 111.376 114.43 110.96C114.366 110.672 114.174 109.984 113.854 108.896C113.566 107.776 113.198 106.56 112.75 105.248C112.334 103.936 111.87 102.704 111.358 101.552C110.846 100.4 110.366 99.632 109.918 99.248C109.854 99.184 109.838 99.12 109.87 99.056C109.902 98.992 109.918 98.928 109.918 98.864C109.918 98.8 109.966 98.8 110.062 98.864C110.158 98.928 110.238 98.976 110.302 99.008C110.846 99.2 111.374 99.552 111.886 100.064C112.43 100.576 112.926 101.168 113.374 101.84C113.822 102.48 114.206 103.152 114.526 103.856C114.878 104.56 115.134 105.216 115.294 105.824C115.742 107.52 116.094 109.328 116.35 111.248C116.638 113.136 116.862 114.944 117.022 116.672C117.054 116.736 117.054 116.928 117.022 117.248C117.022 117.536 116.974 117.696 116.878 117.728ZM123.934 127.76C123.838 127.792 123.71 127.808 123.55 127.808H123.406C122.798 127.68 122.286 127.536 121.87 127.376C121.454 127.216 120.99 126.784 120.478 126.08C120.222 125.856 119.95 125.536 119.662 125.12C119.406 124.672 119.166 124.24 118.942 123.824C118.718 123.408 118.542 123.04 118.414 122.72C118.318 122.4 118.334 122.208 118.462 122.144C118.494 122.112 118.574 122.144 118.702 122.24C118.83 122.304 118.958 122.416 119.086 122.576C119.214 122.704 119.326 122.848 119.422 123.008C119.55 123.168 119.646 123.28 119.71 123.344C119.966 123.728 120.238 124.096 120.526 124.448C120.846 124.768 121.134 125.072 121.39 125.36C121.806 125.776 122.174 126.16 122.494 126.512C122.846 126.864 123.278 127.168 123.79 127.424C124.014 127.52 124.062 127.632 123.934 127.76ZM112.75 115.04C112.174 115.744 111.646 116.432 111.166 117.104C110.686 117.776 110.27 118.432 109.918 119.072C109.342 120 108.99 120.832 108.862 121.568C108.734 122.272 108.702 122.624 108.766 122.624C108.766 122.72 108.862 122.8 109.054 122.864C109.278 122.928 109.566 122.96 109.918 122.96C110.302 122.928 110.718 122.848 111.166 122.72C111.646 122.592 112.126 122.384 112.606 122.096C112.958 121.904 113.262 121.728 113.518 121.568C113.806 121.376 114.11 121.152 114.43 120.896C114.206 120.352 114.014 119.824 113.854 119.312C113.694 118.768 113.534 118.224 113.374 117.68C113.246 117.232 113.118 116.8 112.99 116.384C112.894 115.936 112.814 115.488 112.75 115.04ZM117.214 125.456C116.318 126.224 115.214 126.864 113.902 127.376C112.59 127.888 111.054 128.304 109.294 128.624C108.27 128.816 107.31 128.832 106.414 128.672C105.55 128.544 104.798 128.256 104.158 127.808C103.55 127.36 103.07 126.768 102.718 126.032C102.398 125.296 102.254 124.432 102.286 123.44C102.318 121.872 102.526 120.576 102.91 119.552C103.326 118.528 103.71 117.68 104.062 117.008C104.958 115.312 106.062 113.76 107.374 112.352C108.686 110.912 109.998 109.632 111.31 108.512C110.926 106.688 110.414 105.024 109.774 103.52C109.166 101.984 108.59 100.496 108.046 99.056C108.014 98.928 108.014 98.848 108.046 98.816C108.11 98.72 108.222 98.72 108.382 98.816C108.574 98.88 108.702 98.944 108.766 99.008C109.662 100.064 110.398 101.328 110.974 102.8C111.582 104.24 112.11 105.776 112.558 107.408C113.006 109.04 113.406 110.736 113.758 112.496C114.142 114.256 114.574 115.984 115.054 117.68C115.342 118.736 115.71 119.808 116.158 120.896C116.638 121.952 117.182 122.96 117.79 123.92C118.398 124.848 119.086 125.68 119.854 126.416C120.622 127.12 121.47 127.648 122.398 128H122.734H122.446C121.326 128 120.334 127.76 119.47 127.28C118.606 126.8 117.854 126.192 117.214 125.456ZM116.206 124.112C115.854 124.464 115.47 124.768 115.054 125.024C114.638 125.28 114.238 125.52 113.854 125.744C113.278 126.096 112.558 126.4 111.694 126.656C110.862 126.88 110.014 127.008 109.15 127.04C108.286 127.072 107.47 126.96 106.702 126.704C105.966 126.416 105.406 125.92 105.022 125.216C104.638 124.512 104.462 123.792 104.494 123.056C104.526 122.32 104.67 121.6 104.926 120.896C105.214 120.192 105.566 119.52 105.982 118.88C106.43 118.208 106.846 117.616 107.23 117.104C107.39 116.944 107.582 116.72 107.806 116.432C108.062 116.112 108.254 115.984 108.382 116.048C108.382 116.08 108.302 116.272 108.142 116.624C107.982 116.976 107.854 117.216 107.758 117.344C106.67 119.04 106.094 120.528 106.03 121.808C105.966 123.088 106.302 124.032 107.038 124.64C107.774 125.248 108.846 125.44 110.254 125.216C111.662 124.96 113.278 124.16 115.102 122.816L115.294 122.672C115.198 122.544 115.118 122.368 115.054 122.144C114.702 122.432 114.318 122.704 113.902 122.96C113.518 123.184 113.102 123.424 112.654 123.68C112.11 123.968 111.55 124.176 110.974 124.304C110.43 124.432 109.902 124.496 109.39 124.496C108.91 124.496 108.494 124.432 108.142 124.304C107.79 124.144 107.55 123.904 107.422 123.584C107.134 122.88 107.166 122 107.518 120.944C107.902 119.888 108.43 118.848 109.102 117.824C109.55 117.088 110.03 116.336 110.542 115.568C111.086 114.8 111.678 114.048 112.318 113.312C112.19 112.736 112.062 112.144 111.934 111.536C111.806 110.928 111.694 110.352 111.598 109.808C110.542 110.96 109.438 112.24 108.286 113.648C107.134 115.056 106.158 116.512 105.358 118.016C104.59 119.52 104.11 121.024 103.918 122.528C103.726 124 104.078 125.36 104.974 126.608C105.486 127.056 106.094 127.376 106.798 127.568C107.534 127.728 108.302 127.792 109.102 127.76C109.902 127.728 110.702 127.6 111.502 127.376C112.302 127.152 113.022 126.88 113.662 126.56C114.206 126.304 114.702 126.016 115.15 125.696C115.63 125.344 116.11 124.992 116.59 124.64C116.494 124.576 116.414 124.496 116.35 124.4C116.318 124.304 116.27 124.208 116.206 124.112ZM147.158 115.856C146.71 117.776 146.406 119.776 146.246 121.856C146.086 123.936 146.214 125.952 146.63 127.904C146.662 127.968 146.646 128.032 146.582 128.096C146.55 128.192 146.502 128.16 146.438 128C145.894 126.944 145.51 125.872 145.286 124.784C145.094 123.696 144.998 122.624 144.998 121.568C144.998 120.48 145.078 119.392 145.238 118.304C145.398 117.216 145.606 116.144 145.862 115.088C145.894 114.96 145.958 114.704 146.054 114.32C146.15 113.904 146.214 113.504 146.246 113.12C146.31 112.704 146.31 112.384 146.246 112.16C146.182 111.936 145.99 111.936 145.67 112.16C144.934 112.704 144.246 113.392 143.606 114.224C142.998 115.024 142.502 115.808 142.118 116.576C142.086 116.64 142.006 116.832 141.878 117.152C141.782 117.44 141.67 117.76 141.542 118.112C141.446 118.464 141.35 118.816 141.254 119.168C141.158 119.488 141.094 119.696 141.062 119.792C140.806 120.784 140.486 121.728 140.102 122.624C139.718 123.52 139.398 124.352 139.142 125.12C139.046 125.44 138.982 125.584 138.95 125.552C138.79 125.552 138.71 125.408 138.71 125.12C138.55 123.552 138.678 122.048 139.094 120.608C139.542 119.136 140.022 117.632 140.534 116.096C140.854 115.104 141.142 114.128 141.398 113.168C141.686 112.176 141.814 111.088 141.782 109.904C141.75 109.072 142.054 108.256 142.694 107.456C143.366 106.656 144.358 105.984 145.67 105.44C146.438 105.12 147.158 104.976 147.83 105.008C148.502 105.04 149.126 105.184 149.702 105.44C150.278 105.696 150.79 106.064 151.238 106.544C151.686 107.024 152.054 107.552 152.342 108.128C152.534 107.776 152.822 107.408 153.206 107.024C153.59 106.608 154.038 106.256 154.55 105.968C155.094 105.68 155.686 105.472 156.326 105.344C156.998 105.184 157.734 105.168 158.534 105.296C159.11 105.392 159.606 105.584 160.022 105.872C160.47 106.16 160.854 106.496 161.174 106.88C161.526 107.232 161.798 107.6 161.99 107.984C162.182 108.368 162.326 108.688 162.422 108.944C162.774 110 162.95 111.184 162.95 112.496C162.982 113.808 162.854 114.992 162.566 116.048C162.086 117.776 161.51 119.312 160.838 120.656C160.198 122 159.766 123.2 159.542 124.256C159.446 124.608 159.382 124.784 159.35 124.784C159.222 124.784 159.142 124.72 159.11 124.592C159.11 124.464 159.094 124.336 159.062 124.208C158.998 123.536 159.078 122.688 159.302 121.664C159.558 120.608 159.846 119.488 160.166 118.304C160.486 117.088 160.774 115.856 161.03 114.608C161.286 113.36 161.398 112.208 161.366 111.152C161.334 110.064 161.094 109.12 160.646 108.32C160.198 107.52 159.43 106.976 158.342 106.688C157.478 106.464 156.71 106.464 156.038 106.688C155.398 106.88 154.854 107.104 154.406 107.36C153.734 107.808 153.302 108.288 153.11 108.8C152.918 109.28 152.822 109.744 152.822 110.192C153.366 109.2 154.086 108.416 154.982 107.84C155.878 107.232 156.934 107.12 158.15 107.504C158.95 107.76 159.51 108.24 159.83 108.944C160.182 109.648 160.374 110.432 160.406 111.296C160.438 112.16 160.342 113.024 160.118 113.888C159.926 114.752 159.686 115.472 159.398 116.048C159.366 116.112 159.286 116.272 159.158 116.528C159.03 116.752 158.886 116.848 158.726 116.816C158.694 116.816 158.678 116.688 158.678 116.432C158.71 116.176 158.726 115.984 158.726 115.856C158.822 115.472 158.886 115.024 158.918 114.512C158.95 114 158.95 113.472 158.918 112.928C158.918 112.384 158.886 111.856 158.822 111.344C158.758 110.832 158.662 110.4 158.534 110.048C158.374 109.6 158.118 109.312 157.766 109.184C157.446 109.024 157.094 108.976 156.71 109.04C156.326 109.104 155.942 109.232 155.558 109.424C155.206 109.616 154.902 109.824 154.646 110.048C153.942 110.656 153.51 111.216 153.35 111.728C153.19 112.208 153.062 112.768 152.966 113.408C153.35 112.768 153.814 112.176 154.358 111.632C154.934 111.056 155.494 110.592 156.038 110.24C156.326 110.112 156.566 110.064 156.758 110.096C156.982 110.128 157.158 110.224 157.286 110.384C157.446 110.512 157.558 110.688 157.622 110.912C157.686 111.104 157.734 111.28 157.766 111.44C157.862 112.496 157.814 113.424 157.622 114.224C157.462 115.024 157.254 115.856 156.998 116.72C156.774 117.552 156.582 118.496 156.422 119.552C156.294 120.576 156.326 121.856 156.518 123.392C156.678 124.512 157.014 125.52 157.526 126.416C158.038 127.312 158.678 127.872 159.446 128.096C159.67 128.16 159.718 128.208 159.59 128.24C159.494 128.272 159.414 128.288 159.35 128.288C158.774 128.224 158.23 128 157.718 127.616C157.206 127.232 156.742 126.752 156.326 126.176C155.942 125.6 155.622 124.96 155.366 124.256C155.11 123.552 154.966 122.848 154.934 122.144C154.838 120.704 154.918 119.344 155.174 118.064C155.462 116.752 155.734 115.632 155.99 114.704C156.054 114.448 156.118 114.128 156.182 113.744C156.278 113.328 156.31 112.976 156.278 112.688C156.278 112.4 156.182 112.24 155.99 112.208C155.798 112.144 155.478 112.32 155.03 112.736C154.39 113.312 153.83 113.936 153.35 114.608C152.87 115.28 152.518 116.032 152.294 116.864C151.558 119.52 150.502 122.064 149.126 124.496C149.062 124.624 148.982 124.752 148.886 124.88C148.79 124.976 148.726 125.008 148.694 124.976C148.63 124.976 148.614 124.896 148.646 124.736C148.678 124.576 148.71 124.416 148.742 124.256C148.934 123.136 149.174 122.048 149.462 120.992C149.75 119.936 150.022 118.864 150.278 117.776C150.566 116.656 150.806 115.52 150.998 114.368C151.222 113.184 151.35 111.92 151.382 110.576C151.318 110.128 151.222 109.664 151.094 109.184C150.998 108.704 150.678 108.144 150.134 107.504C149.494 106.8 148.742 106.432 147.878 106.4C147.014 106.368 146.31 106.448 145.766 106.64C145.414 106.736 145.03 106.912 144.614 107.168C144.23 107.424 143.862 107.728 143.51 108.08C143.19 108.432 142.918 108.848 142.694 109.328C142.502 109.776 142.454 110.272 142.55 110.816C142.902 110.176 143.302 109.552 143.75 108.944C144.23 108.336 144.838 107.872 145.574 107.552C145.798 107.456 146.086 107.376 146.438 107.312C146.79 107.216 147.158 107.168 147.542 107.168C147.926 107.136 148.31 107.184 148.694 107.312C149.078 107.44 149.414 107.68 149.702 108.032C150.214 108.672 150.486 109.248 150.518 109.76C150.582 110.272 150.598 110.784 150.566 111.296C150.502 112.224 150.358 113.104 150.134 113.936C149.91 114.736 149.622 115.504 149.27 116.24C149.238 116.336 149.158 116.496 149.03 116.72C148.902 116.912 148.806 117.008 148.742 117.008C148.678 116.976 148.63 116.848 148.598 116.624C148.598 116.368 148.63 116.192 148.694 116.096C148.726 115.744 148.774 115.232 148.838 114.56C148.902 113.856 148.934 113.136 148.934 112.4C148.966 111.632 148.934 110.944 148.838 110.336C148.742 109.696 148.534 109.248 148.214 108.992C147.926 108.768 147.494 108.704 146.918 108.8C146.342 108.896 145.83 109.12 145.382 109.472C144.934 109.824 144.55 110.16 144.23 110.48C143.942 110.8 143.702 111.136 143.51 111.488C143.318 111.808 143.142 112.176 142.982 112.592C142.854 112.976 142.742 113.44 142.646 113.984C143.03 113.248 143.478 112.56 143.99 111.92C144.502 111.28 145.126 110.736 145.862 110.288C146.374 109.936 146.774 109.792 147.062 109.856C147.35 109.92 147.542 110.096 147.638 110.384C147.766 110.672 147.814 111.04 147.782 111.488C147.782 111.936 147.766 112.352 147.734 112.736C147.67 113.248 147.59 113.776 147.494 114.32C147.398 114.864 147.286 115.376 147.158 115.856ZM160.886 128.096C160.886 128.096 160.806 128.096 160.646 128.096C160.582 128.096 160.502 128.08 160.406 128.048C159.958 127.952 159.478 127.76 158.966 127.472C158.454 127.152 158.022 126.576 157.67 125.744C157.542 125.424 157.446 125.008 157.382 124.496C157.318 123.984 157.286 123.488 157.286 123.008C157.286 122.528 157.318 122.112 157.382 121.76C157.446 121.408 157.542 121.248 157.67 121.28C157.702 121.28 157.734 121.36 157.766 121.52C157.83 121.648 157.878 121.808 157.91 122C157.942 122.192 157.974 122.384 158.006 122.576C158.038 122.768 158.054 122.912 158.054 123.008C158.118 123.456 158.198 123.904 158.294 124.352C158.39 124.768 158.518 125.152 158.678 125.504C158.838 125.984 159.126 126.496 159.542 127.04C159.99 127.552 160.39 127.84 160.742 127.904C160.902 127.968 160.95 128.032 160.886 128.096ZM147.974 128C148.038 128.224 148.038 128.336 147.974 128.336C147.814 128.336 147.686 128.256 147.59 128.096C147.43 127.904 147.27 127.632 147.11 127.28C146.95 126.896 146.886 126.256 146.918 125.36C146.918 125.008 146.95 124.592 147.014 124.112C147.078 123.6 147.142 123.136 147.206 122.72C147.302 122.272 147.398 121.904 147.494 121.616C147.59 121.328 147.702 121.2 147.83 121.232C147.862 121.232 147.878 121.312 147.878 121.472C147.91 121.6 147.926 121.76 147.926 121.952C147.958 122.144 147.974 122.336 147.974 122.528C147.974 122.688 147.974 122.8 147.974 122.864C147.974 123.376 147.958 123.84 147.926 124.256C147.894 124.64 147.878 125.056 147.878 125.504C147.878 126.112 147.878 126.624 147.878 127.04C147.878 127.456 147.91 127.776 147.974 128ZM140.87 112.064C140.518 113.28 140.038 114.48 139.43 115.664C138.854 116.848 138.374 117.984 137.99 119.072C137.958 119.136 137.894 119.264 137.798 119.456C137.734 119.616 137.638 119.68 137.51 119.648C137.446 119.616 137.398 119.52 137.366 119.36C137.366 119.168 137.366 119.024 137.366 118.928C137.366 118.416 137.446 117.744 137.606 116.912C137.798 116.048 137.99 115.344 138.182 114.8C138.246 114.608 138.358 114.128 138.518 113.36C138.71 112.56 138.87 111.696 138.998 110.768C139.158 109.84 139.254 108.944 139.286 108.08C139.35 107.216 139.27 106.592 139.046 106.208C138.918 105.984 138.918 105.872 139.046 105.872C139.142 105.872 139.27 105.952 139.43 106.112C139.814 106.464 140.118 106.896 140.342 107.408C140.598 107.92 140.774 108.464 140.87 109.04C140.998 109.584 141.046 110.128 141.014 110.672C141.014 111.216 140.966 111.68 140.87 112.064ZM137.702 128.048C136.71 127.376 135.942 126.64 135.398 125.84C134.886 125.04 134.534 124.208 134.342 123.344C134.15 122.48 134.07 121.6 134.102 120.704C134.166 119.808 134.294 118.928 134.486 118.064C134.742 116.912 135.062 115.776 135.446 114.656C135.862 113.504 136.246 112.4 136.598 111.344C136.982 110.256 137.27 109.2 137.462 108.176C137.686 107.152 137.718 106.176 137.558 105.248C137.558 105.12 137.574 105.056 137.606 105.056C137.67 105.056 137.75 105.136 137.846 105.296C138.422 106.32 138.694 107.376 138.662 108.464C138.63 109.552 138.454 110.672 138.134 111.824C137.814 112.944 137.414 114.096 136.934 115.28C136.486 116.432 136.134 117.6 135.878 118.784C135.718 119.52 135.606 120.304 135.542 121.136C135.51 121.936 135.574 122.736 135.734 123.536C135.894 124.336 136.15 125.12 136.502 125.888C136.886 126.656 137.398 127.344 138.038 127.952C138.166 128.016 138.198 128.08 138.134 128.144C138.07 128.208 137.99 128.208 137.894 128.144C137.83 128.112 137.766 128.08 137.702 128.048ZM139.526 128.24C139.43 128.304 139.302 128.256 139.142 128.096C138.79 127.84 138.438 127.568 138.086 127.28C137.766 126.992 137.446 126.528 137.126 125.888C136.998 125.664 136.902 125.376 136.838 125.024C136.774 124.672 136.742 124.336 136.742 124.016C136.742 123.664 136.758 123.376 136.79 123.152C136.854 122.928 136.934 122.816 137.03 122.816C137.158 122.848 137.254 123.024 137.318 123.344C137.414 123.664 137.494 123.872 137.558 123.968C137.686 124.32 137.798 124.656 137.894 124.976C137.99 125.264 138.102 125.552 138.23 125.84C138.422 126.288 138.614 126.672 138.806 126.992C138.998 127.312 139.222 127.632 139.478 127.952C139.51 127.984 139.542 128.032 139.574 128.096C139.606 128.16 139.59 128.208 139.526 128.24ZM179.284 114.704C179.38 113.84 179.396 112.928 179.332 111.968C179.268 111.008 179.06 110.128 178.708 109.328C178.388 108.496 177.876 107.808 177.172 107.264C176.5 106.72 175.604 106.448 174.484 106.448C172.98 106.448 171.668 106.864 170.548 107.696C169.428 108.496 168.468 109.504 167.668 110.72C166.868 111.904 166.244 113.184 165.796 114.56C165.348 115.904 165.06 117.136 164.932 118.256C164.74 119.792 164.708 121.12 164.836 122.24C164.996 123.36 165.268 124.288 165.652 125.024C166.036 125.728 166.516 126.256 167.092 126.608C167.7 126.96 168.356 127.136 169.06 127.136C170.052 127.168 171.092 126.896 172.18 126.32C173.3 125.712 174.34 124.88 175.3 123.824C176.26 122.736 177.092 121.424 177.796 119.888C178.532 118.32 179.028 116.592 179.284 114.704ZM163.828 118.016C163.956 116.736 164.276 115.328 164.788 113.792C165.3 112.256 166.004 110.832 166.9 109.52C167.828 108.208 168.932 107.12 170.212 106.256C171.492 105.36 172.98 104.912 174.676 104.912C175.956 104.912 177.012 105.216 177.844 105.824C178.676 106.432 179.316 107.216 179.764 108.176C180.212 109.104 180.5 110.128 180.628 111.248C180.756 112.336 180.756 113.376 180.628 114.368C180.34 116.672 179.78 118.672 178.948 120.368C178.116 122.064 177.14 123.488 176.02 124.64C174.9 125.76 173.716 126.608 172.468 127.184C171.22 127.728 170.02 128 168.868 128C168.004 128 167.22 127.808 166.516 127.424C165.844 127.04 165.268 126.448 164.788 125.648C164.34 124.816 164.02 123.776 163.828 122.528C163.668 121.248 163.668 119.744 163.828 118.016ZM169.204 124.784C169.044 124.784 168.884 124.736 168.724 124.64C168.564 124.512 168.436 124.368 168.34 124.208C168.244 124.048 168.18 123.888 168.148 123.728C168.116 123.568 168.18 123.456 168.34 123.392C168.436 123.36 168.564 123.472 168.724 123.728C168.884 123.984 169.06 124.112 169.252 124.112C169.572 124.112 169.94 123.904 170.356 123.488C170.804 123.072 171.22 122.592 171.604 122.048C172.02 121.472 172.372 120.912 172.66 120.368C172.98 119.824 173.204 119.424 173.332 119.168C173.46 118.912 173.588 118.592 173.716 118.208C173.844 117.792 173.956 117.376 174.052 116.96C174.18 116.544 174.276 116.144 174.34 115.76C174.436 115.344 174.5 114.992 174.532 114.704C174.692 113.264 174.66 112.16 174.436 111.392C174.212 110.592 173.844 110.192 173.332 110.192C172.948 110.192 172.548 110.32 172.132 110.576C171.716 110.8 171.316 111.104 170.932 111.488C170.58 111.872 170.26 112.304 169.972 112.784C169.684 113.232 169.476 113.696 169.348 114.176C169.188 114.72 169.076 114.992 169.012 114.992C168.916 114.992 168.868 114.72 168.868 114.176C168.964 113.568 169.172 112.976 169.492 112.4C169.812 111.792 170.212 111.264 170.692 110.816C171.172 110.336 171.7 109.952 172.276 109.664C172.852 109.344 173.444 109.184 174.052 109.184C174.66 109.184 175.108 109.408 175.396 109.856C175.716 110.272 175.94 110.8 176.068 111.44C176.196 112.048 176.244 112.688 176.212 113.36C176.212 114 176.18 114.512 176.116 114.896C175.988 115.76 175.78 116.608 175.492 117.44C175.236 118.24 174.916 119.056 174.532 119.888C174.34 120.272 174.052 120.752 173.668 121.328C173.284 121.872 172.836 122.4 172.324 122.912C171.844 123.424 171.316 123.872 170.74 124.256C170.196 124.608 169.684 124.784 169.204 124.784ZM170.74 125.696C170.772 125.888 170.612 126.048 170.26 126.176C169.94 126.304 169.604 126.368 169.252 126.368C168.26 126.336 167.492 126.016 166.948 125.408C166.436 124.8 166.068 124.08 165.844 123.248C165.652 122.416 165.556 121.552 165.556 120.656C165.588 119.76 165.636 119.008 165.7 118.4C165.828 117.344 166.084 116.16 166.468 114.848C166.852 113.536 167.396 112.304 168.1 111.152C168.804 110 169.668 109.04 170.692 108.272C171.716 107.472 172.932 107.072 174.34 107.072C175.268 107.072 176.004 107.312 176.548 107.792C177.124 108.272 177.54 108.864 177.796 109.568C178.084 110.272 178.244 111.04 178.276 111.872C178.34 112.672 178.324 113.408 178.228 114.08C178.164 114.816 178.052 115.488 177.892 116.096C177.732 116.704 177.508 117.376 177.22 118.112C177.124 118.336 176.996 118.592 176.836 118.88C176.676 119.168 176.5 119.296 176.308 119.264C176.212 119.232 176.18 119.104 176.212 118.88C176.276 118.656 176.34 118.384 176.404 118.064C176.5 117.712 176.596 117.36 176.692 117.008C176.788 116.624 176.852 116.272 176.884 115.952C176.948 115.408 176.98 114.736 176.98 113.936C177.012 113.104 176.948 112.304 176.788 111.536C176.66 110.768 176.404 110.112 176.02 109.568C175.636 109.024 175.06 108.752 174.292 108.752C173.172 108.752 172.132 109.12 171.172 109.856C170.244 110.56 169.428 111.44 168.724 112.496C168.02 113.52 167.444 114.608 166.996 115.76C166.58 116.88 166.324 117.872 166.228 118.736C166.164 119.248 166.148 119.888 166.18 120.656C166.212 121.424 166.324 122.192 166.516 122.96C166.74 123.696 167.092 124.336 167.572 124.88C168.052 125.424 168.708 125.712 169.54 125.744C169.796 125.776 170.036 125.76 170.26 125.696C170.516 125.6 170.676 125.6 170.74 125.696ZM192.493 118.976C192.077 119.744 191.613 120.576 191.101 121.472C190.589 122.336 190.093 122.96 189.613 123.344C189.133 123.728 188.797 123.856 188.605 123.728C188.413 123.6 188.189 123.312 187.933 122.864C187.677 122.48 187.549 122.288 187.549 122.288C187.453 122.32 187.405 122.432 187.405 122.624C187.405 122.816 187.437 122.992 187.501 123.152C187.693 123.792 187.917 124.24 188.173 124.496C188.461 124.72 188.861 124.752 189.373 124.592C189.949 124.432 190.509 124.08 191.053 123.536C191.629 122.992 192.125 122.448 192.541 121.904C193.501 120.592 194.253 119.2 194.797 117.728C195.373 116.256 195.693 114.752 195.757 113.216C195.821 111.808 195.645 110.896 195.229 110.48C194.813 110.064 194.285 109.936 193.645 110.096C193.037 110.224 192.365 110.56 191.629 111.104C190.925 111.616 190.285 112.112 189.709 112.592C189.901 112.112 190.157 111.648 190.477 111.2C190.829 110.752 191.213 110.368 191.629 110.048C192.077 109.696 192.557 109.44 193.069 109.28C193.613 109.088 194.157 109.024 194.701 109.088C195.021 109.12 195.309 109.28 195.565 109.568C195.821 109.856 196.029 110.224 196.189 110.672C196.349 111.088 196.445 111.584 196.477 112.16C196.541 112.736 196.541 113.328 196.477 113.936C196.317 115.152 196.077 116.368 195.757 117.584C195.469 118.8 195.085 119.92 194.605 120.944C194.541 121.104 194.429 121.328 194.269 121.616C194.141 121.904 194.109 122.08 194.173 122.144C194.237 122.208 194.381 122.112 194.605 121.856C194.861 121.568 195.053 121.36 195.181 121.232C195.757 120.464 196.269 119.6 196.717 118.64C197.165 117.648 197.501 116.64 197.725 115.616C197.981 114.592 198.125 113.568 198.157 112.544C198.189 111.488 198.093 110.496 197.869 109.568C197.677 108.768 197.277 108.224 196.669 107.936C196.093 107.648 195.453 107.552 194.749 107.648C194.045 107.744 193.341 107.968 192.637 108.32C191.933 108.672 191.357 109.056 190.909 109.472C191.101 108.992 191.357 108.576 191.677 108.224C192.029 107.84 192.413 107.52 192.829 107.264C193.277 106.976 193.741 106.784 194.221 106.688C194.733 106.56 195.245 106.528 195.757 106.592C196.653 106.688 197.325 107.04 197.773 107.648C198.253 108.256 198.573 108.96 198.733 109.76C198.925 110.528 199.005 111.344 198.973 112.208C198.973 113.04 198.941 113.744 198.877 114.32C198.717 115.664 198.413 116.992 197.965 118.304C197.517 119.616 196.957 120.832 196.285 121.952C195.741 122.848 195.021 123.728 194.125 124.592C193.261 125.456 192.317 126.144 191.293 126.656C190.269 127.168 189.213 127.44 188.125 127.472C187.037 127.472 186.013 127.072 185.053 126.272C184.413 125.728 183.949 125.008 183.661 124.112C183.405 123.184 183.229 122.304 183.133 121.472C182.973 120.032 182.989 118.592 183.181 117.152C183.405 115.68 183.725 114.32 184.141 113.072C184.781 111.12 185.501 109.152 186.301 107.168C187.133 105.184 187.837 103.232 188.413 101.312C189.021 99.392 189.405 97.536 189.565 95.744C189.725 93.952 189.469 92.256 188.797 90.656C188.765 90.592 188.733 90.528 188.701 90.464C188.701 90.4 188.685 90.368 188.653 90.368C188.557 90.4 188.509 90.432 188.509 90.464C188.541 90.496 188.557 90.528 188.557 90.56C188.749 92.096 188.685 93.696 188.365 95.36C188.045 97.024 187.581 98.752 186.973 100.544C186.397 102.336 185.741 104.192 185.005 106.112C184.269 108 183.565 109.952 182.893 111.968C182.445 113.408 182.077 114.944 181.789 116.576C181.533 118.208 181.533 119.872 181.789 121.568C182.141 123.872 183.085 125.584 184.621 126.704C186.157 127.824 188.077 128.256 190.381 128C192.045 127.808 193.517 127.136 194.797 125.984C196.077 124.832 197.149 123.44 198.013 121.808C198.653 120.56 199.197 119.248 199.645 117.872C200.125 116.464 200.413 115.04 200.509 113.6C200.573 112.704 200.557 111.776 200.461 110.816C200.397 109.856 200.189 108.976 199.837 108.176C199.517 107.344 199.021 106.672 198.349 106.16C197.709 105.616 196.845 105.312 195.757 105.248C195.117 105.216 194.397 105.376 193.597 105.728C192.829 106.08 192.221 106.496 191.773 106.976C192.061 106.016 192.317 105.04 192.541 104.048C192.797 103.024 192.989 102.048 193.117 101.12C193.245 100.192 193.293 99.328 193.261 98.528C193.261 97.696 193.149 96.992 192.925 96.416C192.861 96.16 192.797 96.032 192.733 96.032C192.701 96.032 192.685 96.16 192.685 96.416C192.621 98.464 192.285 100.416 191.677 102.272C191.069 104.096 190.461 105.84 189.853 107.504C189.373 108.848 188.861 110.192 188.317 111.536C187.805 112.848 187.357 114.16 186.973 115.472C186.621 116.784 186.365 118.08 186.205 119.36C186.045 120.608 186.077 121.824 186.301 123.008C186.333 123.136 186.381 123.296 186.445 123.488C186.541 123.648 186.621 123.728 186.685 123.728C186.749 123.728 186.765 123.648 186.733 123.488C186.733 123.328 186.749 123.168 186.781 123.008C186.941 121.888 187.245 120.544 187.693 118.976C188.141 117.376 188.669 115.776 189.277 114.176C189.629 113.856 190.045 113.488 190.525 113.072C191.037 112.624 191.533 112.224 192.013 111.872C192.525 111.52 192.989 111.264 193.405 111.104C193.821 110.912 194.125 110.896 194.317 111.056C194.573 111.312 194.669 111.792 194.605 112.496C194.541 113.168 194.381 113.92 194.125 114.752C193.901 115.584 193.629 116.4 193.309 117.2C192.989 117.968 192.717 118.56 192.493 118.976ZM191.101 101.744C191.293 101.072 191.437 100.272 191.533 99.344C191.661 98.384 191.709 97.44 191.677 96.512C191.645 95.552 191.517 94.656 191.293 93.824C191.101 92.96 190.797 92.272 190.381 91.76C190.317 91.696 190.253 91.632 190.189 91.568C190.125 91.472 190.061 91.424 189.997 91.424C189.901 91.424 189.917 91.584 190.045 91.904C190.333 92.544 190.429 93.504 190.333 94.784C190.237 96.032 190.045 97.376 189.757 98.816C189.469 100.256 189.133 101.664 188.749 103.04C188.365 104.416 188.013 105.504 187.693 106.304C187.501 106.752 187.293 107.296 187.069 107.936C186.877 108.576 186.685 109.232 186.493 109.904C186.301 110.544 186.109 111.184 185.917 111.824C185.757 112.432 185.629 112.96 185.533 113.408C185.533 113.568 185.501 113.792 185.437 114.08C185.405 114.368 185.405 114.512 185.437 114.512C185.597 114.576 185.725 114.464 185.821 114.176C185.949 113.888 186.061 113.712 186.157 113.648C187.053 111.824 187.933 109.904 188.797 107.888C189.693 105.84 190.461 103.792 191.101 101.744ZM185.965 124.592C186.253 125.072 186.621 125.472 187.069 125.792C187.517 126.08 187.965 126.272 188.413 126.368C188.573 126.4 188.749 126.448 188.941 126.512C189.133 126.544 189.229 126.624 189.229 126.752C189.197 126.848 189.053 126.928 188.797 126.992C188.669 127.024 188.525 127.04 188.365 127.04C187.821 127.008 187.277 126.912 186.733 126.752C186.221 126.592 185.677 126.128 185.101 125.36C184.717 124.848 184.429 124.272 184.237 123.632C184.077 122.992 183.981 122.384 183.949 121.808C183.917 121.232 183.933 120.752 183.997 120.368C184.093 119.984 184.221 119.808 184.381 119.84C184.413 119.84 184.461 119.936 184.525 120.128C184.589 120.288 184.637 120.496 184.669 120.752C184.733 120.976 184.781 121.2 184.813 121.424C184.877 121.616 184.925 121.76 184.957 121.856C185.085 122.4 185.197 122.848 185.293 123.2C185.389 123.552 185.613 124.016 185.965 124.592ZM208.623 112.16C208.719 111.744 208.767 111.264 208.767 110.72C208.799 110.176 208.767 109.616 208.671 109.04C208.575 108.464 208.399 107.92 208.143 107.408C207.919 106.864 207.615 106.4 207.231 106.016C207.039 105.888 206.927 105.824 206.895 105.824C206.767 105.824 206.767 105.92 206.895 106.112C207.087 106.528 207.151 107.184 207.087 108.08C207.055 108.944 206.959 109.856 206.799 110.816C206.639 111.744 206.463 112.592 206.271 113.36C206.111 114.096 206.015 114.544 205.983 114.704C205.759 115.28 205.551 116 205.359 116.864C205.199 117.728 205.119 118.432 205.119 118.976C205.087 119.04 205.071 119.168 205.071 119.36C205.071 119.552 205.119 119.664 205.215 119.696C205.247 119.696 205.311 119.616 205.407 119.456C205.503 119.296 205.583 119.184 205.647 119.12C206.223 118.096 206.767 116.976 207.279 115.76C207.823 114.544 208.271 113.344 208.623 112.16ZM208.815 119.408C208.943 118.832 209.151 118.096 209.439 117.2C209.727 116.272 209.967 115.328 210.159 114.368C210.351 113.376 210.447 112.416 210.447 111.488C210.447 110.528 210.255 109.744 209.871 109.136C209.743 109.008 209.647 108.944 209.583 108.944C209.519 108.944 209.503 109.008 209.535 109.136C209.535 110.352 209.391 111.488 209.103 112.544C208.847 113.568 208.559 114.576 208.239 115.568C207.695 117.2 207.199 118.8 206.751 120.368C206.303 121.904 206.111 123.488 206.175 125.12C206.175 125.216 206.175 125.328 206.175 125.456C206.207 125.552 206.271 125.6 206.367 125.6C206.431 125.6 206.479 125.568 206.511 125.504C206.543 125.44 206.591 125.344 206.655 125.216C206.975 124.448 207.343 123.552 207.759 122.528C208.175 121.472 208.527 120.432 208.815 119.408ZM205.407 128C204.799 127.36 204.335 126.656 204.015 125.888C203.695 125.088 203.471 124.288 203.343 123.488C203.215 122.656 203.183 121.824 203.247 120.992C203.311 120.16 203.439 119.376 203.631 118.64C203.919 117.488 204.287 116.336 204.735 115.184C205.183 114.032 205.567 112.896 205.887 111.776C206.207 110.624 206.383 109.504 206.415 108.416C206.479 107.296 206.255 106.208 205.743 105.152C205.647 104.992 205.583 104.912 205.551 104.912C205.519 104.912 205.503 104.944 205.503 105.008C205.503 105.04 205.519 105.072 205.551 105.104C205.647 106.064 205.583 107.056 205.359 108.08C205.135 109.104 204.847 110.16 204.495 111.248C204.143 112.304 203.743 113.408 203.295 114.56C202.879 115.68 202.527 116.832 202.239 118.016C202.015 118.88 201.855 119.76 201.759 120.656C201.695 121.552 201.759 122.448 201.951 123.344C202.143 124.208 202.495 125.04 203.007 125.84C203.519 126.64 204.255 127.376 205.215 128.048C205.279 128.112 205.359 128.144 205.455 128.144C205.551 128.176 205.535 128.128 205.407 128ZM205.791 126.176C205.695 125.92 205.583 125.6 205.455 125.216C205.359 124.832 205.279 124.464 205.215 124.112C205.151 123.984 205.071 123.744 204.975 123.392C204.879 123.04 204.799 122.864 204.735 122.864C204.607 122.864 204.511 122.976 204.447 123.2C204.415 123.424 204.399 123.712 204.399 124.064C204.399 124.384 204.415 124.736 204.447 125.12C204.511 125.472 204.591 125.776 204.687 126.032C204.879 126.672 205.103 127.12 205.359 127.376C205.647 127.632 206.015 127.84 206.463 128C206.655 128.096 206.799 128.144 206.895 128.144C206.927 128.144 206.927 128.112 206.895 128.048C206.895 128.016 206.879 128 206.847 128C206.623 127.744 206.415 127.472 206.223 127.184C206.063 126.896 205.919 126.56 205.791 126.176ZM209.535 101.36C209.375 101.36 209.119 101.344 208.767 101.312C208.447 101.248 208.287 101.088 208.287 100.832C208.287 100.736 208.431 100.624 208.719 100.496C209.007 100.336 209.327 100.128 209.679 99.872C210.031 99.584 210.351 99.232 210.639 98.816C210.927 98.368 211.071 97.808 211.071 97.136C211.071 96.304 210.911 95.68 210.591 95.264C210.527 95.168 210.447 95.072 210.351 94.976C210.255 94.848 210.223 94.768 210.255 94.736C210.319 94.736 210.383 94.768 210.447 94.832C210.543 94.864 210.607 94.896 210.639 94.928C211.279 95.28 211.759 95.744 212.079 96.32C212.431 96.864 212.607 97.392 212.607 97.904C212.607 98.928 212.367 99.76 211.887 100.4C211.407 101.04 210.623 101.36 209.535 101.36ZM207.759 99.44C207.375 99.6 207.183 99.504 207.183 99.152C207.183 98.896 207.279 98.656 207.471 98.432C207.663 98.176 207.839 97.904 207.999 97.616C208.191 97.328 208.319 97.008 208.383 96.656C208.447 96.272 208.351 95.808 208.095 95.264C208.031 95.104 207.919 94.928 207.759 94.736C207.599 94.544 207.551 94.432 207.615 94.4C207.679 94.368 207.807 94.4 207.999 94.496C208.223 94.56 208.367 94.608 208.431 94.64C208.975 94.896 209.375 95.28 209.631 95.792C209.919 96.304 210.063 96.752 210.063 97.136C210.063 97.744 209.807 98.256 209.295 98.672C208.815 99.056 208.303 99.312 207.759 99.44ZM206.367 96.848C206.367 96.688 206.415 96.512 206.511 96.32C206.607 96.096 206.767 95.984 206.991 95.984C207.151 95.984 207.279 96.096 207.375 96.32C207.471 96.512 207.519 96.688 207.519 96.848C207.519 96.976 207.471 97.152 207.375 97.376C207.279 97.568 207.151 97.664 206.991 97.664C206.767 97.664 206.607 97.568 206.511 97.376C206.415 97.184 206.367 97.008 206.367 96.848ZM220.289 102.992C220.481 102.288 220.609 101.44 220.673 100.448C220.737 99.424 220.737 98.416 220.673 97.424C220.609 96.4 220.449 95.44 220.193 94.544C219.969 93.648 219.617 92.96 219.137 92.48C218.945 92.288 218.785 92.224 218.657 92.288C218.561 92.352 218.593 92.512 218.753 92.768C219.073 93.344 219.217 94.24 219.185 95.456C219.185 96.64 219.089 97.936 218.897 99.344C218.705 100.752 218.449 102.16 218.129 103.568C217.809 104.976 217.489 106.208 217.169 107.264C217.009 107.712 216.849 108.272 216.689 108.944C216.529 109.616 216.353 110.304 216.161 111.008C216.001 111.68 215.857 112.352 215.729 113.024C215.601 113.664 215.505 114.208 215.441 114.656C215.441 114.752 215.425 114.944 215.393 115.232C215.361 115.488 215.393 115.648 215.489 115.712C215.553 115.712 215.649 115.584 215.777 115.328C215.905 115.04 215.985 114.864 216.017 114.8C216.785 113.008 217.569 111.104 218.369 109.088C219.169 107.04 219.809 105.008 220.289 102.992ZM219.185 114.704C219.345 114.128 219.569 113.376 219.857 112.448C220.145 111.52 220.433 110.512 220.721 109.424C221.009 108.304 221.281 107.152 221.537 105.968C221.825 104.752 222.033 103.584 222.161 102.464C222.321 101.312 222.369 100.256 222.305 99.296C222.273 98.336 222.113 97.552 221.825 96.944C221.793 96.848 221.729 96.752 221.633 96.656C221.537 96.56 221.489 96.64 221.489 96.896C221.553 98.944 221.345 100.992 220.865 103.04C220.385 105.088 219.873 106.944 219.329 108.608C218.913 109.92 218.481 111.232 218.033 112.544C217.617 113.856 217.249 115.168 216.929 116.48C216.641 117.76 216.449 119.024 216.353 120.272C216.289 121.52 216.417 122.72 216.737 123.872C216.865 124.288 216.977 124.496 217.073 124.496C217.169 124.464 217.217 124.256 217.217 123.872C217.217 123.296 217.265 122.656 217.361 121.952C217.489 121.216 217.649 120.448 217.841 119.648C218.033 118.848 218.241 118.032 218.465 117.2C218.689 116.336 218.929 115.504 219.185 114.704ZM218.273 127.856C217.153 127.728 216.145 127.168 215.249 126.176C214.385 125.184 213.809 123.968 213.521 122.528C213.233 121.152 213.153 119.76 213.281 118.352C213.441 116.912 213.697 115.568 214.049 114.32C214.561 112.4 215.169 110.432 215.873 108.416C216.577 106.368 217.169 104.352 217.649 102.368C218.161 100.384 218.449 98.48 218.513 96.656C218.577 94.8 218.257 93.104 217.553 91.568C217.489 91.536 217.441 91.472 217.409 91.376C217.377 91.248 217.329 91.2 217.265 91.232C217.169 91.232 217.153 91.344 217.217 91.568C217.473 93.04 217.489 94.64 217.265 96.368C217.041 98.064 216.673 99.84 216.161 101.696C215.681 103.52 215.121 105.408 214.481 107.36C213.873 109.312 213.297 111.264 212.753 113.216C212.337 114.656 212.049 116.192 211.889 117.824C211.761 119.424 211.873 121.04 212.225 122.672C212.417 123.504 212.705 124.256 213.089 124.928C213.505 125.6 213.985 126.176 214.529 126.656C215.073 127.104 215.665 127.456 216.305 127.712C216.945 127.968 217.601 128.08 218.273 128.048H218.417C218.449 128.048 218.497 128.032 218.561 128C218.561 127.904 218.465 127.856 218.273 127.856ZM216.833 125.456C216.257 124.784 215.793 123.92 215.441 122.864C215.409 122.768 215.361 122.624 215.297 122.432C215.233 122.208 215.169 122 215.105 121.808C215.041 121.584 214.977 121.392 214.913 121.232C214.849 121.04 214.801 120.944 214.769 120.944C214.641 120.944 214.577 121.152 214.577 121.568C214.577 121.984 214.625 122.464 214.721 123.008C214.817 123.552 214.961 124.112 215.153 124.688C215.345 125.232 215.569 125.664 215.825 125.984C216.337 126.56 216.849 126.912 217.361 127.04C217.905 127.168 218.449 127.232 218.993 127.232C219.185 127.232 219.329 127.184 219.425 127.088C219.553 126.96 219.473 126.864 219.185 126.8C218.257 126.704 217.473 126.256 216.833 125.456ZM235.313 108.416C235.569 108.736 235.761 109.136 235.889 109.616C236.049 110.096 236.113 110.624 236.081 111.2C236.049 111.744 235.921 112.32 235.697 112.928C235.473 113.536 235.121 114.128 234.641 114.704C233.713 115.792 232.689 116.64 231.569 117.248C230.481 117.824 229.489 118.112 228.593 118.112C228.049 118.112 228.049 118.016 228.593 117.824C228.881 117.728 229.217 117.584 229.601 117.392C230.017 117.168 230.449 116.912 230.897 116.624C231.345 116.304 231.793 115.936 232.241 115.52C232.721 115.104 233.153 114.624 233.537 114.08C234.177 113.184 234.545 112.32 234.641 111.488C234.769 110.624 234.609 109.968 234.161 109.52C233.777 109.136 233.329 108.928 232.817 108.896C232.305 108.832 231.537 109.104 230.513 109.712C229.585 110.256 228.753 110.928 228.017 111.728C227.281 112.528 226.593 113.376 225.953 114.272C225.601 114.72 225.361 114.944 225.233 114.944C225.137 114.944 225.185 114.656 225.377 114.08C225.761 112.96 226.289 111.92 226.961 110.96C227.665 110 228.497 109.184 229.457 108.512C230.161 108.032 230.801 107.696 231.377 107.504C231.985 107.312 232.529 107.232 233.009 107.264C233.521 107.296 233.969 107.424 234.353 107.648C234.737 107.84 235.057 108.096 235.313 108.416ZM237.905 111.776C237.777 112.544 237.569 113.2 237.281 113.744C237.025 114.256 236.721 114.704 236.369 115.088C236.049 115.44 235.713 115.728 235.361 115.952C235.041 116.176 234.753 116.384 234.497 116.576C234.369 116.672 234.273 116.688 234.209 116.624C234.145 116.56 234.193 116.448 234.353 116.288C234.929 115.808 235.505 115.168 236.081 114.368C236.689 113.536 237.009 112.624 237.041 111.632C237.041 109.936 236.625 108.64 235.793 107.744C234.961 106.848 233.921 106.464 232.673 106.592C231.425 106.688 230.129 107.168 228.785 108.032C227.921 108.576 227.153 109.216 226.481 109.952C225.841 110.656 225.281 111.424 224.801 112.256C224.321 113.056 223.921 113.888 223.601 114.752C223.313 115.616 223.105 116.48 222.977 117.344C222.849 118.176 222.721 119.072 222.593 120.032C222.497 120.992 222.497 121.936 222.593 122.864C222.721 123.792 223.025 124.688 223.505 125.552C223.985 126.384 224.737 127.104 225.761 127.712C225.921 127.808 226.081 127.872 226.241 127.904C226.433 127.936 226.529 127.968 226.529 128C226.529 128.064 226.449 128.096 226.289 128.096C226.129 128.128 225.953 128.112 225.761 128.048C224.961 127.888 224.273 127.568 223.697 127.088C223.153 126.576 222.705 126 222.353 125.36C222.001 124.72 221.729 124.048 221.537 123.344C221.345 122.64 221.233 122 221.201 121.424C221.009 118.896 221.361 116.4 222.257 113.936C222.449 113.424 222.689 112.848 222.977 112.208C223.297 111.568 223.681 110.928 224.129 110.288C224.577 109.616 225.105 108.976 225.713 108.368C226.321 107.728 227.009 107.168 227.777 106.688C228.513 106.24 229.281 105.904 230.081 105.68C230.881 105.456 231.681 105.36 232.481 105.392C233.281 105.392 234.033 105.536 234.737 105.824C235.441 106.08 236.065 106.48 236.609 107.024C237.089 107.536 237.457 108.192 237.713 108.992C238.001 109.792 238.065 110.72 237.905 111.776ZM233.537 110.048C233.921 110.496 233.969 111.2 233.681 112.16C233.393 113.088 232.721 114.032 231.665 114.992C231.089 115.536 230.529 115.984 229.985 116.336C229.441 116.656 228.753 116.944 227.921 117.2C227.569 118.416 227.345 119.616 227.249 120.8C227.153 121.984 227.185 122.944 227.345 123.68C227.377 123.968 227.473 124.256 227.633 124.544C227.825 124.8 228.081 125.008 228.401 125.168C228.753 125.296 229.201 125.344 229.745 125.312C230.289 125.28 230.961 125.104 231.761 124.784C231.985 124.688 232.113 124.672 232.145 124.736C232.209 124.768 232.113 124.864 231.857 125.024C231.281 125.472 230.673 125.792 230.033 125.984C229.393 126.144 228.785 126.192 228.209 126.128C227.665 126.064 227.185 125.872 226.769 125.552C226.385 125.232 226.129 124.8 226.001 124.256C225.745 123.136 225.633 121.968 225.665 120.752C225.697 119.536 225.873 118.336 226.193 117.152C226.545 115.968 227.025 114.864 227.633 113.84C228.273 112.784 229.057 111.888 229.985 111.152C231.713 109.776 232.897 109.408 233.537 110.048ZM233.057 125.36C232.833 125.68 232.545 126 232.193 126.32C231.873 126.608 231.489 126.88 231.041 127.136C230.625 127.36 230.177 127.552 229.697 127.712C229.249 127.872 228.785 127.952 228.305 127.952C227.473 127.952 226.689 127.776 225.953 127.424C225.249 127.04 224.705 126.288 224.321 125.168C224.257 125.04 224.225 124.928 224.225 124.832C224.225 124.704 224.257 124.64 224.321 124.64C224.449 124.576 224.577 124.624 224.705 124.784C224.833 124.912 224.961 125.056 225.089 125.216C225.441 125.632 225.889 126 226.433 126.32C227.009 126.64 227.553 126.8 228.065 126.8C229.025 126.8 229.857 126.656 230.561 126.368C231.265 126.08 231.937 125.696 232.577 125.216C232.737 125.12 232.913 125.024 233.105 124.928C233.329 124.832 233.313 124.976 233.057 125.36ZM232.385 111.344C232.257 111.088 231.793 111.296 230.993 111.968C230.257 112.544 229.665 113.216 229.217 113.984C228.801 114.72 228.433 115.536 228.113 116.432C228.721 116.144 229.281 115.824 229.793 115.472C230.305 115.088 230.785 114.72 231.233 114.368C231.713 113.952 232.065 113.408 232.289 112.736C232.513 112.064 232.545 111.6 232.385 111.344Z" fill="white"/>
</svg>
